<mxfile host="Electron" modified="2024-03-15T00:15:31.648Z" agent="Mozilla/5.0 (Windows NT 10.0; Win64; x64) AppleWebKit/537.36 (KHTML, like Gecko) draw.io/21.6.5 Chrome/114.0.5735.243 Electron/25.3.1 Safari/537.36" etag="tUW5_k8IcSL8FFB8HfrQ" version="21.6.5" type="device" pages="4">
  <diagram name="메인 첫화면" id="ow25ho0XZc2YeekETHMT">
    <mxGraphModel dx="1687" dy="993" grid="1" gridSize="10" guides="1" tooltips="1" connect="1" arrows="1" fold="1" page="1" pageScale="1" pageWidth="1390" pageHeight="980" math="0" shadow="0">
      <root>
        <mxCell id="0" />
        <mxCell id="1" parent="0" />
        <mxCell id="z5JCR_3xnZNyp-f65HOQ-2" value="" style="rounded=0;whiteSpace=wrap;html=1;" vertex="1" parent="1">
          <mxGeometry x="40" y="40" width="1320" height="710" as="geometry" />
        </mxCell>
        <mxCell id="z5JCR_3xnZNyp-f65HOQ-3" value="" style="rounded=0;whiteSpace=wrap;html=1;" vertex="1" parent="1">
          <mxGeometry x="185" y="110" width="1175" height="640" as="geometry" />
        </mxCell>
        <mxCell id="z5JCR_3xnZNyp-f65HOQ-4" value="고객사 구분" style="rounded=0;whiteSpace=wrap;html=1;fontSize=20;" vertex="1" parent="1">
          <mxGeometry x="220" y="140" width="190" height="60" as="geometry" />
        </mxCell>
        <mxCell id="z5JCR_3xnZNyp-f65HOQ-5" value="고객사 명" style="rounded=0;whiteSpace=wrap;html=1;fontSize=20;" vertex="1" parent="1">
          <mxGeometry x="460" y="140" width="190" height="60" as="geometry" />
        </mxCell>
        <mxCell id="z5JCR_3xnZNyp-f65HOQ-7" value="" style="whiteSpace=wrap;html=1;aspect=fixed;" vertex="1" parent="1">
          <mxGeometry x="720" y="155" width="30" height="30" as="geometry" />
        </mxCell>
        <mxCell id="z5JCR_3xnZNyp-f65HOQ-8" value="폐업여부" style="rounded=0;whiteSpace=wrap;html=1;fontSize=20;" vertex="1" parent="1">
          <mxGeometry x="760" y="150" width="140" height="40" as="geometry" />
        </mxCell>
        <mxCell id="z5JCR_3xnZNyp-f65HOQ-9" value="" style="html=1;verticalLabelPosition=bottom;labelBackgroundColor=#ffffff;verticalAlign=top;shadow=0;dashed=0;strokeWidth=2;shape=mxgraph.ios7.misc.check;strokeColor=#0080f0;" vertex="1" parent="1">
          <mxGeometry x="727.5" y="160" width="22.5" height="18" as="geometry" />
        </mxCell>
        <mxCell id="z5JCR_3xnZNyp-f65HOQ-12" value="그리드" style="rounded=0;whiteSpace=wrap;html=1;fontSize=20;" vertex="1" parent="1">
          <mxGeometry x="190" y="320" width="1170" height="430" as="geometry" />
        </mxCell>
        <mxCell id="fii8d74ARLL5vzZUqQ0o-2" value="" style="rounded=0;whiteSpace=wrap;html=1;" vertex="1" parent="1">
          <mxGeometry x="190" y="320" width="1170" height="160" as="geometry" />
        </mxCell>
        <mxCell id="z5JCR_3xnZNyp-f65HOQ-16" value="등록" style="rounded=0;whiteSpace=wrap;html=1;fontSize=20;" vertex="1" parent="1">
          <mxGeometry x="320" y="330" width="100" height="50" as="geometry" />
        </mxCell>
        <mxCell id="z5JCR_3xnZNyp-f65HOQ-17" value="삭제" style="rounded=0;whiteSpace=wrap;html=1;fontSize=20;" vertex="1" parent="1">
          <mxGeometry x="440" y="330" width="100" height="50" as="geometry" />
        </mxCell>
        <mxCell id="z5JCR_3xnZNyp-f65HOQ-18" value="PDF" style="rounded=0;whiteSpace=wrap;html=1;fontSize=20;" vertex="1" parent="1">
          <mxGeometry x="1150" y="365" width="100" height="60" as="geometry" />
        </mxCell>
        <mxCell id="z5JCR_3xnZNyp-f65HOQ-19" value="Excel" style="rounded=0;whiteSpace=wrap;html=1;fontSize=20;" vertex="1" parent="1">
          <mxGeometry x="1250" y="365" width="100" height="60" as="geometry" />
        </mxCell>
        <mxCell id="d0qYtQKkVJ_Vb2FjfLrP-1" value="상세" style="rounded=0;whiteSpace=wrap;html=1;fontSize=20;" vertex="1" parent="1">
          <mxGeometry x="250" y="482.5" width="60" height="35" as="geometry" />
        </mxCell>
        <mxCell id="d0qYtQKkVJ_Vb2FjfLrP-4" value="상세" style="rounded=0;whiteSpace=wrap;html=1;fontSize=20;" vertex="1" parent="1">
          <mxGeometry x="250" y="517.5" width="60" height="35" as="geometry" />
        </mxCell>
        <mxCell id="d0qYtQKkVJ_Vb2FjfLrP-5" value="상세" style="rounded=0;whiteSpace=wrap;html=1;fontSize=20;" vertex="1" parent="1">
          <mxGeometry x="250" y="552.5" width="60" height="35" as="geometry" />
        </mxCell>
      </root>
    </mxGraphModel>
  </diagram>
  <diagram id="kLutr3jhZYwCuvjorF73" name="등록">
    <mxGraphModel dx="1434" dy="844" grid="1" gridSize="10" guides="1" tooltips="1" connect="1" arrows="1" fold="1" page="1" pageScale="1" pageWidth="1390" pageHeight="980" math="0" shadow="0">
      <root>
        <mxCell id="0" />
        <mxCell id="1" parent="0" />
        <mxCell id="fD0_-aZLHQMzKloWWm48-1" value="" style="rounded=0;whiteSpace=wrap;html=1;" vertex="1" parent="1">
          <mxGeometry x="130" y="130" width="1060" height="590" as="geometry" />
        </mxCell>
        <mxCell id="fD0_-aZLHQMzKloWWm48-2" value="고객사 등록" style="rounded=0;whiteSpace=wrap;html=1;fontSize=20;" vertex="1" parent="1">
          <mxGeometry x="170" y="170" width="190" height="60" as="geometry" />
        </mxCell>
        <mxCell id="fD0_-aZLHQMzKloWWm48-5" value="저장" style="rounded=0;whiteSpace=wrap;html=1;fontSize=20;" vertex="1" parent="1">
          <mxGeometry x="820" y="620" width="90" height="60" as="geometry" />
        </mxCell>
        <mxCell id="fD0_-aZLHQMzKloWWm48-6" value="취소" style="rounded=0;whiteSpace=wrap;html=1;fontSize=20;" vertex="1" parent="1">
          <mxGeometry x="940" y="620" width="90" height="60" as="geometry" />
        </mxCell>
      </root>
    </mxGraphModel>
  </diagram>
  <diagram id="m2w41BD8KYPI5CZKvHrz" name="스웨거">
    <mxGraphModel dx="2756" dy="804" grid="1" gridSize="10" guides="1" tooltips="1" connect="1" arrows="1" fold="1" page="1" pageScale="1" pageWidth="1390" pageHeight="980" math="0" shadow="0">
      <root>
        <mxCell id="0" />
        <mxCell id="1" parent="0" />
        <mxCell id="2SWSq1c9Q5VbUZ4ysSgk-1" value="" style="shape=image;verticalLabelPosition=bottom;labelBackgroundColor=default;verticalAlign=top;aspect=fixed;imageAspect=0;image=data:image/png,iVBORw0KGgoAAAANSUhEUgAABeoAAAFUCAYAAABbdAy9AAAAAXNSR0IArs4c6QAAAARnQU1BAACxjwv8YQUAAAAJcEhZcwAADsMAAA7DAcdvqGQAAFnYSURBVHhe7d0JnBTVvff/b89MMzAuLDLAIEQTFVwwCiQRvZpFyOVxA4R7XV7BGxH+LgSvzyu+RG5c8jyIEfHR3EQvxrwCaOReo/dqXBBFRZNoADWAUQRxS3RYwhIUxVFm/fevumqmuqd6m+ltpj9vXyddXXW66tSpHgjfOnMqVF9f3yIAAAAAAAAAAFAQZe4rAAAAAAAAAAAoAIJ6AAAAAAAAAAAKiKAeAAAAAAAAAIACIqgHAAAAAAAAAKCACOoBAAAAAAAAACgggnoAAAAAAAAAAAqIoB4AAAAAAAAAgAIiqAcAAAAAAAAAoIAI6gEAAAAAAAAAKCCCegAAAAAAAAAACoigHgAAAAAAAACAAiKoBwAAAAAAAACggEL19fUt7nLx2/G2Vr6wQr9fsUHrt32sfbauxwE66vBhGjf5Ip35zUN1YLlTEwAAAAAAAACALqFrBPVNW7Vy/nwt+MNO1burgvQYdZkeuOV09XPf5039x/pg3cta/sgjOuiCezR1lLseAAAAAAAAAIAUin/qm30btGjatZqXIqQ39Z83uEv5tEF3n3OZLv7xYj3054/1qbsWAAAAAAAAAIrF1q1bddRRRznFllFcijuob9qp5T+er6U72gL4A4edrmtuuUNPPPGgXlgRLSt+favmf2+kjmLaGwAAAAAAAACIYcH8d77zHe3YscMptrx9+3Z3K4pBUQf1e5bdqds2tIX0h509Rw/8+2U6c9ShOrCHuzKix8DDddK/zNEvF4zP/7Q3AAAAAAAAAFCk/va3v2ncuHFOMP/EE084xZZPP/10ZxuKQxHPUf+2lp53gxbtdd8ec5H+6/azVZPmqPk37zxfs5a5b86+QS9cOcJ9E7XnsRs0ZeHb0TfHXKKH/z0u5N/7V638zW/05AsbtP4ju1kQ1mEnnKaLZkzV2GEHRN5v0N3jb9JDTuVg593yoK7wz1fftFNvLvutHnx0XezDcI8ZqTPPmKxx7R6Gu1PL//eVum1T9N1JM+/U/IkH6INnlmrR4hf1YqRdPXoP06QrLtcV3zk0WinS7uV3/1yL/rhVe+qlA/uO0Pn/+zJNHTMguj3e3q16+bH79eDytvPsN3C4vnnm2bron0eqn6897fvsVH362GLdtuQlvdk0QtcvuUFj+0c3AwAAAAAAACgsC+Jt9Py2bdv0+OOP61vf+paz/ve//70mTJigwYMH64UXXtCgQYOc9Sic4h1R/9cN+oMX0ius8/4l/ZC+s+rXLdalU6/VvEfWu+G1adAHf35e8668TIv+7K7KQP3by3TjlCs1a+HzetEL6U39Z3rnzy/pZ/N/qClX3q93WjcEqdObd/5QF98e2Yfbrvq9b+uh+ZG2rvxY+ugV/WzmtbrthWhIb/Z9tEGLfvxDzVm2M7rCx2nT9yPb/jP2PPfs2KBHl8zXlH9ZrDeTtGf7svm6dOFLevPzyJv6eu1viq4HAAAAAAAAUFi7du1qne7m6aefbg3pjS3bOm8aHKuLwiraoH7fe2/rHXdZGqERR7iLOWfB9wq94wTdYZ30LzfpieUP6oXlS/Vf//dsjezVoPpMA+kdK3Tj1ffrRQu0k6h/b5lm/XiF9rjv4+35wyLdtuxj951fg1bes0g/u/3nenS3uypGg17+deSc3HcOf5v6f0PX/Ps90Tn/7TznnKrDrM7uFfrh/Jfabir41b+iB3/9dsoH/AIAAAAAAADILwvebWobe33mmWd08sknu1va2DrbZmG9VxeFU7RBff2+z9wlM0D9eruLubbjL9rQOpL/y/rmuGHR6WjKw6oZc5HuWHiJhjkj+0foCudhtjfoPHvrsuluvIfcRqe9adD6++7Xy16i3WOAzptzh1ZY+G/1Hr1Dd0w8XN6U+/Ub7tf9f/RGt8d6Z8NfNOhfbnVvHNyjO87u426J2PuKHn31AE2ac2d0v0/coWtGhN2NEXvf1js73OWYNh2g6f92tc48xt2Xned3ztd57o2R+ldf0vrW/vB5b4NeDJ+q+UuWRo+3/EaNY9obAAAAAAAAoKC8kN7moV+5cqW+9rWvuVvas20W1ntz1hPWF05RP0y2TQdGsXdUzPQ6b+uhe57XB/5h44PHa+wJ7nJaNmvdi23B+0kzbnDmk+/hHafXoRo58980u3Uu+wYt//NmdznOqEt0/fcOd28c9NHIGdM1KbrFUTP5al31HXcu+h6H6swrJ+uo6LuIyEm09qG/TZ9p0dXn6zvj/eVK3faeuznSBx9scxdjWMB/pU4a7N4MKA+3nRMAAAAAAACAvNuzZ48TuO/cudMJ6U84IXWQaWG91bXPjB8/3tkH8q9og/p+g4e4S+Zlvek+wzTn+p+ks77eNhL9gz/eo4vPmaqLZ9+j5Wu2al/G095sdafRMYfrm18PeqhrHx05om19/XtbA6e/OWrEcB3oLjt6VbWOxDenjRrmLrmGflkj3UXpr/rAe4hzTJtS+UyfBk7Zc6pGxj6fFwAAAAAAAEAB3Xnnndq9e7eef/75tEJ6j9V99tlntWXLFi1cuNBdi3wq3hH1XzpcJ7mLFhbf/9greZoPvY9OmzNP13xzgC8Ejz5I9rYf/1DnTLlJKwNHmKcjssd0Rp1X940N5F39DvRNZRMkft/lKeo7Dtc1S9xpeBKU6BQ+cY45VDXuIgAAAAAAAIDC+/GPf+xMY3Pccce5a9L31a9+1RlVf/3117trkE/FG9QPPEnf9QXE9S/8XDc+stV9l0Ci0e7bdsY9ELVBH2z+i7sc4MDDdeZ1d2rFr2/QNZNH6rjevsD78w2a93+Xabv7tp34NvQfEH0wq+Ntrflz0MNgP9a7G3a6y1JN/z4xI+Wz7uC+vpD9r1r+QpJ+zdeUQwAAAAAAAABQoop4jvo+GvsvZ/tC7ga9fM+1uvT6B/Xyezvb5qxvatC+2re18tfzdensFa1TxhzYzzfFzLoHtegF9zNNH+udx36un60MfmBrTDA9cITOvGyO7npoqf5rhm9amb/uDJyaxrz4h1ei0+NE2uUcr3yExoxtC/pfvPMWLVqzta39n2/V+oW3aME6970O0Jlj4qawybZewzTCdxPkzV/P1W2Pva093q8sRNq+572X9ND1V2rRn911AAAAAAAAAICcKO6HyR5zkW6ZOSxmCpp3Xn1Ec2ZeqfFnug8+PXOqzplxg+b953q94wvZDzvhG75R4x/r0fnuZ868TJcuXK8DDw+aKz5i9wrdeOU9Wr5uq/a1Btcfa59/nvbIZ/u5i9IQDfPN1b79mdt1jnOcqW7IHdbIqRfpJO8k6v+qpT/+YVv7J/1QP3zsr63T+tT845U6L+dzv/fRaReM990E+VjLF96gKee4bYq0fcrMO3X3qzvzNN0QAAAAAAAAAJSu4g7qI2om3qQH5p2tkb3cFUn06OWbombEeE0fETxH+2Fnz9E1Z/Zx37VX//bzuu3ffqhzWoPry3Tpf7pPs+1xuKZf+R3fTYA+OunMkcmnqhk8XnNvOVvHpZjP5rB/uFK3/+8U+8qSHidcoluuHBE4F36bsA7KR2MAAAAAAAAAoIQVfVBv+n39It3x8J365dXna9IJA3SYL7Tv0XuARo45W9fccqeemHe6b6T7AI1dcJfu+F7bHPM9eh+qSTNv1V0zR+ggZ02A8rAOGdwnLsAO67DBIzRp2pW6d+mtmjriAHd91IFj5+jeOafrtL5tNwasXYf4Qu4eIy7SXUvv0Pxpp+q0gQe0hfG9+rS2/94bT1VNOg+bzZKas2/QE7+eo6u+M0JH+ebhP7DvAJ12xiW669dLI+fqrgQAAAAAAAAA5ESovr6+xV0GAAAAAAAAAAB51iVG1AMAAAAAAAAA0F0R1AMAAAAAAAAAUEAE9QAAAAAAAAAAFBBBPQAAAAAAAAAABURQDwAAAAAAAABAARHUAwAAAAAAAABQQAT1AAAAAAAAAAAUEEE9AAAAAAAAAAAFRFAPAAAAAAAAAEABEdQDAAAAAAAAAFBABPUAAAAAAAAAABQQQT0AAAAAAAAAAAVEUA8AAAAAAAAAQAER1AMAAAAAAAAAUEAE9QAAAAAAAAAAFFCovr6+xV3Oi9Uvr3WXAAAAAAAAAACl7OSTRrtLpS3vQT0AAAAAAAAAAGjD1DcAAAAAAAAAABRQQUbUt7RED+m9AgAAAAAAAABKQygUinlFnoN6C+a90tzc3LoMAAAAAAAAAOj+LJy3UlZW1rpMYJ/HoN4L5ZuamtTY2Oi8WiGsBwAAAAAAAIDuzwvly8vLnVJRUeG8EtbnMai3EfQWzDc0NOiDvdJztQdo855yNTS5FQAAAAAAAAAA3Vq4XBrer0njhn6mw3pH3ofDTlhvI+xLWV6Cehsxb0F95Fj668ct+o8/H6yzj2rWqJoWVUYuDAAAAAAAAACg+9vfJK3bHtKyd8r0gxM+0eF9QurRo0frVDilKm+3KbwR9TaS3kL6k4cQ0gMAAAAAAABAKbFM2LJhy4gtK7bM2LLjUpeXoN4/P71Nd2Mj6QEAAAAAAAAApckyYsuKeY5pVN5G1HudbXPSM5IeAAAAAAAAAEqXZcSWFRPSR+V1hn46HAAAAAAAAADgITOOysvDZG2OoYaGBtXV1WnOqmotGNfkbon127fKnAcJ2AMFkJrddbJfETn3aOZwAgAAAAAAANC1zH6uXPNP2aWqqiqFw2HngbKlqmjO3EL61VsI6TNhfWV9Zn0HAAAAAAAAAOiaiibhtZH06Bj6DgAAAAAAAAC6rqIJ6hlJ33H0HQAAAAAAAAB0XcyZAgAAAAAAAABAARHUAwAAAAAAAABQQAT1AAAAAAAAAAAUEEE9AAAAAAAAAAAFRFAPAAAAAAAAAEABEdQjYoOWTDhPkyYs0mZ3TfZlcoxkdTNta2fOLVv9ko39ZKst6cjnsfwSHddb75VctqtQ554tue7DZP2T6tgdOWY6n810/51pTyLePuNLpsfI1n48uThXAAAAAACQCwT1AIqYBY1z9ZjG69bHH9Kjj9+oiVqhawkeM0Af5o/Xx53t52ztp5jt1HPXxN2QuGaFPops2Xz3eVryWmThtUWadPcGp3Z6It91dx+59NGy63XTsp3uO4+dz/V6Ln41AAAAAABpKvGgPqSbJ4W0OK7cPMrdnGD74rEhjT81YL2vtO2j2PlDvOka7q7NvhGa5oROqY6Rr/akI902p5Kt/XRnQdc9aJ31JUFzsFLtw2L9+Sq176p91+KCd39pF6AP0Ljb7Lq55VfTNforh6qvuzWV4LA8XSna6pSues3s3LhhAAAAACB75s/7Pxp+2CBt2vimuyZ9m97c4Hz2/82f565BMiUb1EeDdqlmb50uWLy1tSzd3qyWZreSmtTivDbqBV+dC5bt19PP/z3mM2brO211Zr/irEJWRUNHzSWoBTqHm0ddR1cJ/L3vVECxEN6tlcjmhxdpyMkj3He5FtdWp312M8u3Lu5nw0b5eyH+tF++rbW/nNUW6qc9ir8YQvT2Nymc317oALtZ0vYbD8E3Pzq6bwAAAADF47If/KsO6d9fE8Z/Rxte/7O7NjWrO+F/na6BNTWaftlMdy2SKc2gflRI5/ePvFpIv7xcVf0Gt5aVL36ka/8UrdamTOW+OlW9eijUo1/r+3B5yKkVCrfVCVc4q4pcNPgOHr0e9I9uf0gU3b7ktfh6iYIkr16yoClZe9IV257YkCB+m/99ULsStTm6PjvnHr+P+HredusXY2Fd4nrJ25StY5lkxzHptMdjdTK57v6Q2dt/0HkErfOXoO2dPffYbcm/Y8n2Y6Lbc9OHQZIdx9uWTv+kI51zSpe3r0T7iD1W++Awvi1Wgs49fv/pHNd/TTq6nyDeZ/wlqM2d/T7nh4Xg1+pGTTvRXRHx2I2Rtty4wn2XSzv13G2LpOF/0bVJAvfhV/hD/Lhy2/i0fxOgOAzTrF957b9RujFbNw/8+/X2HbmOGU1fBAAAAKDY9O3bT0+seEHVAwY4wXs6Yb0X0ttnfrvsGWcfSK0kg/ppzr+om/Xme+VO6O5nAXzXCNlzyYIbL2Bq+wd30IjOx2701yv0qM/4dltI4AVVfrbd2xZd7ki7O3/u6fSzF0rbeuOv2z6QjW2Tv042j9W+nxOde+L25FMhzt22J/uOFVsfpmpPJt9D+5w/+LX9+qV/7p3X/lixfybEb+9se/zn7u0329crnTZn/2c5J3au0E2RvrKQ/tErYkfTT5wbac/c8e679nbWvq21tZ1Ml53jz1Lt9x7SDbfN06Pf26JpkfYkHAXutrftu53N0fF2LXz7jrtp4B/RHx98+7fdtGyruzZdAzTU+0LYMwHijtu5KYbsexj5Tj31G6biAQAAALq4Q/pXO2H9oJoaJ4Bfv7bdKOdWts3qWF37jH0W6SnJoL5/pf1vi3b/NTakT6xM3+yS888n4w9o4oMkL+RJJ2Dyf979R3mHgp5k7TFt2085Meg4QZ/36uVKorZ2RiZ9HyRRmzq7X0+yfg667qn6KNV1z5WO9Eem555IIfvQ6voCP+dY2Tovj+3H+tYr/p/BbB8rmWTH8tj7VN+DoPYl6nP/ucd/JpP9JJNOm9ORw2thgXaq6WCszowXdbKNwI4L6VPboFXvj9fE9wMC4M2LnLA92W8GOFO2WJ3bpFmRvmwdyX/idOfanbI6+vMRG1BH+strb+s1vkC1MzrRT63sQbRzteXSu1r3fetXIufhBfKRvqo92Ttm5Pr4gm87F+dGh/u5WXoxck0zsHO9Vus0jR4QWT7xJE3c/KLWtp72Tq39vXTyN2xjR43QKWe8rdpt7lsAAAAAXZYX1vevrta5Z31Xr7682t3SxtbZNqtDSJ+5kgzqezv5fEgh7+xHtYXwTjkrpNhxfLFz1JfG/PMW4nhhnhULdJBd/lDM+jgbgU8ypXpN893P6fLak8/r4YW81h/xCtGeYpCrn4sshd6BstnmPF33+AfFDhivGx6fp3EBGbBNM+OE5xacB4T4m++eK31vuqZdc5pW3xZ3Q2D4dC1xvuOJb2T0PXteNNhunbLG+rPtGnnT3NxwdmcC6gy89oTu0nTN8h1v+BUWyL8cbVOkr8a1TgvkD7436NFfSrOmtPVR37MvCPjZjve27prhXm+7+XCN1w8jNOlSafUrblJvIf5XLgi8RpkYMHSYtmyJv6MCAAAAoCuy4H3ZM7/TgIEDNfmc8frji793t8hZtnW2zeoQ0meuBIP6Jn1cb68hVR/hrJBe+TQawr+8X5/Z+5YmZ3Wb2Dnqu/7UOBZKWBiTaBSnf3s0sAgO9rIlVXv8vFApR2FS3vmDU+/cchEk5/uapiOT6+5nn8u0n/LVz5nwXwt/ybQvOtKHQbLRnq4m3Z+LttB9lfPMgI72eTb2k26b05WH675ti9a6i+3YdCvOz2OCEjPNi408P08PDb0rGuQPGK9Z33pR09J+mGtnRK7dr07Tai/gdspvNPRXWeqn+BsZzpQ0f5E3u49/eptrn4qui/qyhmYcpPvnkv9X6ba23x7o+43TpN+vd/ozWw/4tWmKhgzJ000PAAAAADk3YOAgJ4ivqRms8849ywnordiyrYsG+YPc2shECQb1Ib3+UbPzepj3nak4MBrC96qIrEVm/KNFsxka+gUFU1a80LXQgWs2xAfJ3eGcihH9jK4mV3+u5lGCkfEOd7qZwBI3R/3mu2fprq/cGDPS3UbHL7GwPh8PLHV+C+AhLbl0mEY709QE/0ZAh7y/Ne5mw07Vbo6G8BbSr2qd+uYh3XqGWyUrBmjc98a3zfc/YKROlk1/s0GrnrKp5qKrO2znCj2Ujf0AAAAAKCoWxD+6/DknmD9/8tk6b9KZGjz4UGe6G0L6jivBoL5MK37/kV7YK1VVh3TXqe7qkpHl0Gf4MI12Ak8b6deR/WarPW0jVdvfOChW1j7rt64UFifr50yuYTqfyeaxstHP2WpP0H5Mpu3sbB96stWedGSrD9ORzrlnIrq/tgcEp2provPKdD+5kr3rHvOgUyszFmlt61zxcaUTgbozJU1A4O9MZZPuPPftHghrxa6F9UP8eu9hsV6fRMu0X76ttb+c5auX5AG06TjxHM3SIt3lmxPfpvd57IyTIt+Nnap9f5iGDnY3vLbIN6LepsGJtNvXp87n3OX07NRz/7lCo1uH5Vtw/2Wtvu032nLpOZ37bjrPIVikIXML9R0HAAAAkEuDDx2ix59+3gnmB9YM1mNPrdTAQTXuVnRESc5RH+rRT/ct36oL3mlUVX/f3PRfLVeVWydW7MNk289h3934AxwviJgrzQ0KdU5zHsbXNgqykP8gj2+31+ZiFdzPweFdUN30g7TMrmmqY7Xv59wFjqmOFXxesUFVojod6edsnXsmbeqs9m1u/3ORbntS9U86stWH6Uh17sHnHfxzkY7Y/XT8vJLtJ5M2p7pewfvKtN3enO5plYwfHJtl7qj4wLa1K96IeeunoO1tpfWBtCn55oe34kzbM0DjbrtRQ3zhv/OAWKevosF562dWnxQzon74FXdp1vtzWz+36mS7nqn42zBLq791V+x8/CeepCGRL0nmD5GNO7cZW3ReRn0DAAAAoKuxsH7dhnecYsvonFB9fX2Lu5wzzc3NamhoUF1dneasqtaCcfFzwEuznyt3l/KocZ/qPvnEfePTo696HdhLIdWrYc9uNbirW7Vuj2qp36PP932h8MGFm78+qE9zyx0tag/ua30gHwB0N/Gj8DsavmdrPyXE5q9ffVIG4X6kj6/ZqkkF+TvJ5s//uXRNFqfDKRQbCX+bNIu/2wEAAADkgWXC80/ZpaqqKoXDYZWVleS4ckdpB/XdSP6DegAA0N14c+IzEh4AAABAPhDUtyndMwcAAECU/QbDhOi0O4T0AAAAAJB/BPUAAACl7sTp0Tn3C/0cAQAAAAAoUQT1AAAAAAAAAAAUEEE9AAAAAAAAAAAFVDRBfSXPku0w+g4AAAAAAAAAuq6iCepH1bS4S8gUfQcAAAAAAAAAXVfRBPXnHt2sk4e0MDo8A9ZX1mfWdwAAAAAAAACArilUX1+f8+HYzc3NamhoUF1dneasqtaCcU3uFgAAAAAAAABAKZr9XLnmn7JLVVVVCofDKisr3Ueq5vXMQ6GQuwQAAAAAAAAAKHVkxlF5C+qtw62Ey6X9DKgHAAAAAAAAgJJlGbFlxV5uXOryEtR7nV1eXq7h/Zq0bjsdDwAAAAAAAAClyjJiy4otMyasz+OIeptfyDp93NDPtOydMq3eEmJkPQAAAAAAAACUEMuELRu2jNiyYsuMS3luek9eHiZr7IGyTU1NzkNlP9grPVd7gDbvKVcDYT0AAAAAAAAAlASb7sZG0ltIf1jvyPtwmLA+Im9BfUtLi1MsrG9sbHRerXjrAQAAAAAAAADdl3+KdCsVFRXOK1Pf5DGoN14ob8VG2BPSAwAAAAAAAEDp8EJ5G0HvLZd6SG/yGtR7vHCekB4AAAAAAAAASosXzBPQtylIUA8AAAAAAAAAAKJ4nC4AAAAAAAAAAAVEUA8AAAAAAAAAQAER1AMAAAAAAAAAUEAE9QAAAAAAAAAAFBBBPQAAAAAAAAAABURQDwAAAAAAAABAARHUAwAAAAAAAABQQAT1AAAAAAAAAAAUUKi+vr7FXc6blpboIb1XAAAAAAAAAEBpCIVCMa/Ic1BvwbxXmpubW5cBAAAAAAAAAN2fhfNWysrKWpcJ7PMY1HuhfFNTkxobG51XK4T1AAAAAAAAAND9eaF8eXm5UyoqKpxXwvo8BvU2gt6C+YaGBn2wV3qu9gBt3lOuhia3AgAAAAAAAACgWwuXS8P7NWnc0M90WO/I+3DYCetthH0py0tQbyPmLaiPHEt//bhF//Hng3X2Uc0aVdOiysiFAQAAAAAAAAB0f/ubpHXbQ1r2Tpl+cMInOrxPSD169GidCqdU5e02hTei3kbSW0h/8hBCegAAAAAAAAAoJZYJWzZsGbFlxZYZW3Zc6vIS1Pvnp7fpbmwkPQAAAAAAAACgNFlGbFkxzzGNysvUN3ZHxOam//zzz3XtH/trwbjYiekrykKq6lGmcEVIPN8XAAAAAAAAALoHC58bGltUV9+sxubYKHr2c+W69R92q1evXs5c9aU8T31eg/q6ujrNWVUdE9RbSN+7qlxvv/2eltz/33r1T69p//56dysAAAAAAAAAoCuqrOyhr3/tRE276J81bNgR2lvXFBPWW1A//5RdqqqqKvmgvuBnbiPpLaSfedV1eumPrxDSAwAAAAAAAEA3YFmvZb6W/VoGbFkwghV8RP0hB1bo326Y71ywg489XdX/cJHKex3sbkU67OEL5x7NAxcAAAAAAAAAFI9PPvlE9y1ZqpUrf6dT/+EbuuWmOfr7vkZ3KyPq/Qp+5jYnvU13YwjpO2bddmb2BwAAAAAAAFBcDj74YH1/2lRn2TJgUszEiuIWhTfdDSF9x+yPfTYvAAAAAAAAABQFC+sNU54nx6RAAAAAAAAAAAAUEEE9AAAAAAAAAAAFRFAPAAAAAAAAAEABEdQDAAAAAAAAAFBABPUAAAAAAAAAABQQQT0iNmjJhPM0acIibXbXZF8mx0hWN9O2dubcstUv2dhPttqSjnweyy/Rcb31Xslluwp17tmS6z5Mp3+4XsEybWs2zq0r9Q8AAAAAAKWNoB5AEbOgca4e03jd+vhDevTxGzVRK3QtwWMG8tmHXC+YnXruGrtB4CvXrNBHkS2b7z5PS16LLLy2SJPu3uDUTk/ku+XuIyXbt//YccU5fryOfCZDm+++Xs/tdN+ka+cK3ZTueXeGHSej6wEAAAAAyLYSD+pDunlSSIvjys2j3M0Jti8eG9L4UwPW+0rbPoqdP1ibruHu2uwboWlOcJfqGPlqTzrSbXMq2dpPdxZ03YPWWV8S/gYrdB9yvbKrmP7csGsbHGA7pV2QPEDjbrO2u+VX0zX6K4eqr7s1lY+WXa+blmWaaMc548a24/vKrWe42+OdOD2wvpWEn4lj7W7fP8nC+YAbGm5J6/wtXI//bIJQP/O2AQAAAEDU/Hn/R8MPG6RNG99016Rv05sbnM/+v/nz3DVIpmSD+mjQLtXsrdMFi7e2lqXbm9XS7FZSk1qc10a94KtzwbL9evr5v8d8xmx9p63O7FecVciqaBCouQR/QOdw8wiZ8L4vAcVCeLdWIpsfXqQhJ49w3xWpJCPqr33KrZNC37PnxfXPXZo1/MsaOsCt0I7vhob14/DpWuJ+9oazE34oyto7Y4vOaz1WtCz51ouaFvB3Y3Db3I0AAAAAkMRlP/hXHdK/vyaM/442vP5nd21qVnfC/zpdA2tqNP2yme5aJBOqr6+PZtE51NzcrIaGBtXV1WnOqmotGNfkbpH6H1ihU0+f7CwP+9eHndecGxXS4i9FXi2kX16uql49ousjWur3qLGsn8IV9q5Z8yaVa3Dk9Q+PhnSvU6O98adI5w8IadtfW3R9Fn49viP8fZq+oBGwHm+bX/uRuhaa60Z/vaB9mWTH8qSqE3/M1O2eGFP3JK0K3GaS7St+W3w7PMnbnU57o/z1grZ72tdL3qZsHcvE1w3enl4feftKdIygz3iC6iRb55dquydRuzyJ95P8O5ZsPya6Pfd96EnWnvhtfl69dI4VVCfZOr9M2+OJr5t4P7m9Xt7n4z+XSLL68W0x/npB2z3pHj9NNqr7NmnWbeMDR8zbVDfX6kY9ekU0qHfee8G3jXp31/vZ6O+79K9xYXXknK7ZqkkJjhPDQuwbV7hv2ps49yFNO9F947HPrD4psD0dZn3z8KG6ofXcr1ftlHkaF5TBx/VjTD9ZgB9z3jYS/+fSNcH7ss+uOjngHGPE9WdcWwEAAADA7++7d+mc8d/R37Zv1+NPP68RXz3B3RLMC+kH1dToiRUv6JD+1c5AKPPS849o975GZ9nMfq5c80/ZpaqqKoXDYZWVle4EMCV55tOcf5U26833YkN6E+rhhfSlzB8QeaPvgkexP+YEUl69Qo90j293fGDmse3etuhyR9rd+XNPp5+9kay23vjrtg/bYtvkr5PNY7Xv50Tnnrg9+VSIc7ftyb5jxdaHqdqT2fewc7heyWWzf3LInZbFH9J7LCh/dO549117O2vf1traTszJEjONjfWB//yTBNhPzW03mt4rHZmKJ6PfJNi2RWs3b5F3lOFXuO1N4zcWOuKjZb/Rlm+NTH3TAwAAAAAiLGi3wN2Cdwvg16/9k7ulPdsWH9IjPSUZ1PevtP9t0e6/xob0iZXpm11y/vlk/GFPfHDjhTzpBDr+z9vnEgdYySVrj2nbfsqJQccJ+rxXL1cStbUzMun7IIna1Nn9epL1c9B1T9VHqa57rnSkPzI990QK2YdW1x9A2rGydV651J2uVy50pH86yAL4VA83tTozXtTJv4q0KeMR2hu06v3xmvj+b9rPn755kaa1fm8DuDcH/AH7JOfa2XWKXx83P3uKcD/lVDTxXlvk3KSIvSnwtu6aET1+/MNpN69eodHD/6KH0rohMEDjvvflyL7azzFvv41w7VP296S7Ikikn+76/Wmalek5AQAAAChpXljfv7pa5571Xb368mp3SxtbZ9usDiF95koyqO/t5PMhhbyzt6lwfEH84rNCkX+i+8XOUV8a88/HB3oWdiC7/GGf9XGuA9FSvab57ud0xYeH+bgeXqBr/RGvEO0JwvVKrgj7J/5BsQPG64bHg6dlsZHiTnhtwXhAiL/57rnS96Zr2jWnafVtcTcEWudwT3BDwjluW7ievLjt60y4n4jt80bp1nbnN0yz7OZF5PgxAX6k/kPvT9es2y7QkF8+4VxPm77GOeaMRVobrRXL+u9XkT5yg3+vTPv9aZE+SnLDxtpmc9unM4UQAAAAAMSx4H3ZM7/TgIEDNfmc8frji793t8hZtnW2zeoQ0meuBIP6Jn1cb68hVR/hrJBe+TQawr+8X5/Z+5b4+d7LVN5vsKrc0vWnxgkaIern3+6FGkHBXrakao+fF54UKiTLNn9wmsvgLd/XNB2ZXHc/+1ym/ZSvfs6E/1r4S6Z90ZE+DJKN9gThemVfEfWPTdniLraT5AGtTrl7g1vR2Lzr5+mhoXdFQ+wB4zXLHoyaavR+ABtVHng8t8SMZu9IuJ+Ec2ybaz7t70Xk58N+++AaC84j13WuItdzkZTO1Dde2/0Pok0SwDttcx5AW4jvLAAAAIDuYsDAQU4QX1MzWOede5YT0FuxZVsXDfIHubWRiRIM6kN6/aNm5/Uw7ztTcWA0hO9VEVmLzFhI5AVE2QwN/fz7dcMLp3ghVaEDvGyID966wzkVI/q5a+F6JVcE/ZNgZLwjZjqZuBI3R/3mu2fprq/cGDPFTN+z52mJhfUxgX5q9rnAY0bKrWe4leJkFO4Hit5osIfgJgvLYzij+e0BxL4bANZnFtZ34AZFYtG2Tau9INIHhPQAAAAAOs+C+EeXP+cE8+dPPlvnTTpTgwcf6kx3Q0jfcSUY1Jdpxe8/0gt7parqkO461V1dMrIcpg8fptFOQGRhRkdHR2ejPRZYxYdV3r6LlbXP+q0rhY/J+jmTa5jOZ7J5rGz0c7baE7Qfk2k7O9uHnmy1h+uVH/k9busULF6xqVha54qPKxkG6n7Ow1MDAn8ndM94nvvMdSTcjzVA427LcC57d0R8u4fbWlifKOwP+i2FhNfE+45E25aPfgQAAABQOgYfOkSPP/28E8wPrBmsx55aqYGDatyt6IiSnKM+1KOf7lu+VRe806iq/r656b9ariq3TqzYh8m2n8O+u/EHU94/+G3UX1BYdZpmxYQa6YZfuRDfbq/NxSq4n4NDxKC6mQR1mVzTVMdq38+ZBZ+ZSHWs4POKvTmTqE5H+jlb555JmzqrfZvb/1yk257O9k+i4/il2xbT2fakK5M2peLfh1f8bU4lm/2TmhOgx/wZn6QQBOdest9SaFcy/W4CAAAAQGYsrF+34R2n2DI6J1RfX9/iLudMc3OzGhoaVFdXpzmrqrVgXNsc8P0PrNCpp092lof968POa9407lPdJ5+4b3x69FWvA3sppHo17NmtBnd1q9btUS31e/T5vi8UPrhw89f7+zQ/3JGpNi8uD6UDAGTCRoavPimDcD/yd841WzWpk3/f2G8IrDo5YBR7Eh35TJDNd1+v2imp57mPYdPj2Jz3uf571o7z8KG6gZstAAAAAHLEBo+Zl55/RLv3NTrLZvZz5Zp/yi5VVVUpHA6rrKwkx5U7Sjuo70byH9QDAAAAAAAAQGoE9amV7pkDAAAAAAAAAFAECOoBAAAAAAAAACgggnoAAAAAAAAAAAqIoB4AAAAAAAAAgAIqiqC+srKH89r0+SfOKzJTWe4uAAAAAAAAAEAR+eSTaObrZcAIVvCgviVSvv61E53lXX+8n7C+A0bVWC8CAAAAAAAAQPGwkP6+JUudZcuASTETC9XX1+e8f5qbm9XQ0KC6ujrNWVWtBeOa3C3SwT3L9Zf339fMq67T/v317loAAAAAAAAAQHdgo+kX/uxmffkrX9EnX7Rlw7OfK9f8U3apqqpK4XBYZWWlO1N7wc+8rr5Zw4Yd4VyoU//hG/wKBAAAAAAAAAB0A5b1WuZr2a9lwJYFI1heR9R//vnnuvaP/WNG1JuKspCqepQpXBFSyF0HAAAAAAAAAOjaLHxuaGxxQvrG5tgo2kbU3/oPu9WrV6+SH1Gft6C+sbHRCeqvW32IbvxmEw9ABQAAAAAAAIAStb9JmvuHct188t+doL6iooKpb3ItFAo5pby8XMP7NWnddsbNAwAAAAAAAECpsozYsmLLjL38uJTl7RaF3Q2xTh839DMte6dMq7eEnLsmAAAAAAAAAIDSYJmwZcOWEVtWbJlxKY+k9+Rl6htj0980NTU5c9V/sFd6rvYAbd5TrgbCegAAAAAAAAAoCeFyOSPpLaQ/rHfkfThMWB+Rt6C+paXFKRbW23z19mrFWw8AAAAAAAAA6L78U6RbsXnp7ZWpb/IY1BsvlLdiI+wJ6QEAAAAAAACgdHihvI2g95ZLPaQ3eQ3qPV44T0gPAAAAAAAAAKXFC+YJ6NsUJKgHAAAAAAAAAABRPE4XAAAAAAAAAIACIqgHAAAAAAAAAKCACOoBAAAAAAAAACgggnoAAAAAAAAAAAqIoB4AAAAAAAAAgAIiqAcAAAAAAAAAoIAI6gEAAAAAAAAAKCCCegAAAAAAAAAACihUX1/f4i7nTUtL9JDeKwAAAAAAAACgNIRCoZhX5Dmot2DeK83Nza3LAAAAAAAAAIDuz8J5K2VlZa3LBPZ5DOq9UL6pqUmNjY3OqxXCegAAAAAAAADo/rxQvry83CkVFRXOK2F9HoN6G0FvwXxDQ4PerdulRz95Q2/UbVN9c6NbAwAAAAAAAADQnfUoq9DxVYM16eDjdWRVtcLhsBPW2wj7UpaXoN5GzFtQHzmW3vlsp2762wqdP/BrOqX3EepZFnZrAQAAAAAAAAC6sy+aG7Rq73t6cMefdMOg8TrqgAHq0aNH61Q4pSpvQb1Nd7N//37dsfN3OvagwTq979HuVgAAAAAAAABAKXn+o7e08dNt+uGAb6uystKZBqeUg/q8/D6BNw+9TX1j093YSHoAAAAAAAAAQGmyjNiyYp5jGpW3iX+8zrY56ZnuBgAAAAAAAABKl2XElhUT0kfldYZ+OhwAAAAAAAAA4CEzjsrLHPX2INmGhgbV1dXp4toHtOTYi90tse7fvsZ5kIA9UACp2V0n+xWRi2rGuGsAAAAAAAAAoGuYtvFe3Tv0QlVVVSkcDjsPlC1VRXPmFtLbAwQI6dNnfWV9Zn0HAAAAAAAAAOiaiiaot5H06Bj6DgAAAAAAAAC6rqIJ6hlJ33H0HQAAAAAAAAB0XaU76Q8AAAAAAAAAAEWAoB4AAAAAAAAAgAIiqAcAAAAAAAAAoIAI6gEAAAAAAAAAKCCCegAAAAAAAAAACoigHhGbdN9Z0zTlrKXa7K7JvkyOkaxupm3tzLllq1+ysZ9stSUd+TyWX6Ljeuu9kst2FercsyW+/fF955Vcn182+rGrXwsAAAAAAID0EdQDKGIW1i7Q4xqrnzy5RA8/OVsTtFI/IrzNkNd/9GH+7NLKq/03RyLl6pX6OLJl88Jpum99ZGH9Uk1ZuMmpnZ7Iz4O7j5Rs3/5jxxXn+PE68hkAAAAAAJAVofr6+hZ3OWeam5vV0NCguro6XVz7gJYce7G7pc20jfe6S9k2TveMPk5D3XetvnhTZ775nPsmavKwyzXjoEr3ndmjFWvv18/cd5729fbrz1tekWpO0wnl7qp2gveVLUF9mh5/EDpVw921hZOqPZm2t9jOr6PyeR6F6LOgYyZqRy7bV4hzz5Zi6cNsKbY2eu1J4OipWnT7WPVx37azY6Vufniwrpt5jBPUrzl5ib6vpZqyerQejqyL9/ETN+s/dKmuO6faXWMibbh6myYmO47HQvcE++6I1jaPdFcAAAAAAErCgpt+oiX3/Eq/feZJHX1sZv/G3PTmRk0ef7ZmzLxMV//oWndtLMuE7x16oaqqqhQOh1VWVrrjykvgzFsi/5ndeurpuRobKb/Y84XU8zgtP26cs0UapVtOvEozDmrR+reidaw89Vk/jR99le453K0WcdVxVq9SH27114sco3mtZv/BW/es1jdY7bZjjn36V/qpswd0XDQo0zxGBAPIt2P0/dbfSogri6dG/hZJbvPDSzXk5OyE5jmTZET9j5506wAAAAAASsqls67QIdX9NXHcGdrw+hvu2tSs7qTvnqlBNYM0/YpL3bVIpgRG1I/VL0aP0Jf0d61Yu9QZ0d6y/9u655QTIuuio9xr3RHyH269Rf/ftiqVu7cvmuuO1S1jvquRYW80/LjIvo6LfG63nl7zn/p52KtXp5aebZ+z4P8nJ5ymEyvajplrHRtRn2zEatDo0fYjdS001/X+eolGvyY7lidVnfhjpm73hJi6o7UmcJtJtq/4bfHt8CRvdzrtjfLXC9ruaV8veZuydSwTXzd4e3p95O0r0TGCPuMJqpNsnV+q7Z5E7fIk3k/y71iy/Zjo9tz0YdD6VO0xbXVif7bSbY+JP45J1g6/+P2lanN0e/o/qx1ko+Ujh/lBgpHuNhr9R5rdOrrdee8F32e1rffLyoj661e6b9obdfmCuH1HZHkUPgAAAACge/j77t2a+N0ztWP7dv32meUa8dXj3S3BLKQ/9x/P1MCaGj327HId0r+/u6U9RtS3KckzD1W689M0fKoPNUpf72XT2OzWxlp/2B7pnKo39eq+LyJL/XSMM6reu6fRX8ce5S5GlEW+SP7PdX1e+GVhljdqNHgU++OtQV3iOvkT3+74cM5j2/0hY8fa3flzT6efvVG8tt7467YPGmPb5K+TzWO17+dE5564PflUiHO37cm+Y4XsQ/+xE30/gtrjr5PoZyuV+OMEHasbfQ8twLfR6L6Q3jNhXqQd88a679rbUfuu1tXudt91wMip7rkGl3YhvefJBYEj6q3c/MQutxIAAAAAoJRY0G6BuwXvFsC/tnadu6U925ZuSI9YJRnUTx52lL4Ued237y96RP3UtyLypuEz1boj5NuE5N3E6Re2iQ2e0dM2bU7Elw65SstPnKzJzruuKCis83hBWTphlv/z9rnEYVlyydpj2raPGRl0nKDPe/VyJVFbOyOTvg+SqE2d3a8nWT8HXfdUfZTquudKR/oj03NPpBB9aPv1Atf4uum0J76Otz0b8nEtkvVNB1gAn+qhrlbnkjUaszhybhmPUN+kNe+N1YT3HtHKHe4qz1tLNd25jgm+b+7NgfiQPbjcHLv/mHDf+tL6zXufJNwHAAAAAHR7Xljfv7paU844R6+uednd0sbW2TarQ0ifuRIK6g9x5ptfHineHPPnbnpNoYEHqZ9tDoUUcuol4AymL9dv3/qpxm51RzmWD9UM22frXPfdiQVh/kDHQjFklz9YtD5ON+jtqFK9pvnu53T5w/NcXw9/4JoozM5He7J9LfLZhykcMTh2OpqBY3Xdk9dp7ED3vc/wme5DWS0YDwjxNy9cIE2dqu/PHqM1C+JuCNhDa53rmODGg3PctnA9eXHbFxjuW1/G96+VuHAfAAAAAFAynLD+uac0YOBA/fNZE7XqDy+5W+Qs2zrbZnUI6TNXQkG9/8GuczWjtrfClSFp+17tsc0VB2ioUy/Ynv1rnddQZZUqaxdH9+MF9j2P038PS/UowWISNBrVz7/dC3QsXMuVVO3x84KjAgZyWeWNJs51kJzva5qOTK67n30u037KVz9nwn8t/CXTvsi0D/1hub8PstGedGTzWuSrzSls266Ev/SX5AGtTlm4ya1odmnl1dP0P0MXRIP8gWP1g2+v0fRUo/cTCQzgA4L2joT7AAAAAICS5AXxNYMH64KJU5yA3oot2zovyEfmSiioD6msurcq3VLhTXNT9qw7nc0h7jz0fqP09QN6Rl53a+P7vvH24crofiywd8P6lmbnpQT5w76OBq+pBIXMVoLCxq4qPrzsDudUjOjnjokP972fyc7oRtciwch4R7K54uPmqN+8cLYWHjE7ZoqZPudcp0UW1scE+mmwGwSXbNc/xR9z8RituSR4VLw9wDY21I8t9613KwIAAAAASpoF8Y88vUw1g2t04aR/0vkTJmvwoYP16LPLCek7oSTnqI9l09ms0voGm3f+ct3i+y5dddxpOqFC+nDrYv27E+yP0z2jL9JVztaIcKVm94v+Goc34r74ZTlMP/pIjXJCNgtyOrLfbLUnPkg02QgTc8naZ/3WlQLKZP2cyTVM5zPZPFY2+jlb7Qnaj8m0nR05dpB02+Ovt0CaZ8uZyuW1MNnaf6zNC22fvnLJUq1rnSs+rmQaqPvYlDhBgb+F9ZnOc//xlg806vLx7b8XNkr/cmnNK+0fDOscJz7Yd8tPznIrAQAAAAAQUWPB/DMWzA/QoJpB+u2KJzVw0CB3KzqCoD4iVPm65rw0V099VqkThkTnsbcyvmd0upwZtZVuR7VE/uvXOte9U6eXBfmROv4R912ePwTzAigvmIsPxsboBzGBTmcCw86Kb3dHw8R8Ce7n4OA1qG4mYWQm1zTVsdr3c+fD4kRSHSv4vGJvziSq05F+zta5Z9KmfEjVHi8AX6sx7s+6MzVLxnJ5LZLtq3OcAD3mz7kkJeMHx+ZGnyGHad0vVrT/M2LHSv3HLyJ/cn+DB8MCAAAAADrHwvpXN73uFFtG54Tq6+udx6TmUnNzsxoaGlRXV6eLax/QkmMvdre0mbbxXncp25rUuGtf5H97KlztBe7Bmuv2quEz940j/jPevmKV9/FNpeNoUdMnn6hxf+pjZktQn+aWO5rXHmx4+9jYhygC6Ibcn3n3XVShbix0EzY9zerRGYT7kWtw9TZNTPfPXJuj3kb/u2+jjtTMxZnPM2+/VbDm5I7eoAEAAAAAIJhlwvcOvVBVVVUKh8MqKyvdceUlENSXhvwH9QAAAAAAAADQcQT1bUr3zAEAAAAAAAAAKAIE9QAAAAAAAAAAFBBBPQAAAAAAAAAABURQDwAAAAAAAABAARVNUN+zLOwuIVP0HQAAAAAAAAB0XUUT1J/S+wh3CZmi7wAAAAAAAACg6yqaoP6imjE6ve/RjA7PgPWV9Zn1HQAAAAAAAACgawrV19e3uMs509zcrIaGBtXV1eni2ge05NiL3S0AAAAAAAAAgFI0beO9unfohaqqqlI4HFZZWek+UjWvZx4KhdwlAAAAAAAAAECpIzOOyltQbx1upUdZhb5obnDXAgAAAAAAAABKjWXElhV7uXGpy0tQ73V2eXm5jq8arFV733O3AAAAAAAAAABKjWXElhVbZkxYn8cR9Ta/kHX6pIOP14M7/qTnP3qLkfUAAAAAAAAAUEIsE7Zs2DJiy4otMy7luek9eXmYrLEHyjY1NTkPlX23bpce/eQNvVG3TfXNjW4NAAAAAAAAAEB3ZtPd2Eh6C+mPrKp2HiJLWJ/HoL6lpcUpFtY3NjY6r1a89QAAAAAAAACA7ss/RbqViooK55Wpb/IY1BsvlLdiI+wJ6QEAAAAAAACgdHihvI2g95ZLPaQ3eQ3qPV44T0gPAAAAAAAAAKXFC+YJ6NsUJKgHAAAAAAAAAABRPE4XAAAAAAAAAIACIqgHAAAAAAAAAKCACOoBAAAAAAAAACgggnoAAAAAAAAAAAqIoB4AAAAAAAAAgAIiqAcAAAAAAAAAoIAI6gEAAAAAAAAAKCCCegAAAAAAAAAACihUX1/f4i7nTUtL9JDeKwAAAAAAAACgNIRCoZhX5Dmot2DeK83Nza3LAAAAAAAAAIDuz8J5K2VlZa3LBPZ5DOq9UL6pqUmNjY3OqxXCegAAAAAAAADo/rxQvry83CkVFRXOK2F9HoN6G0FvwXxDQ4PerdulRz95Q2/UbVN9c6NbAwAAAAAAAADQnfUoq9DxVYM16eDjdWRVtcLhsBPW2wj7UpaXoN5GzFtQHzmW3vlsp2762wqdP/BrOqX3EepZFnZrAQAAAAAAAAC6sy+aG7Rq73t6cMefdMOg8TrqgAHq0aNH61Q4pSpvQb1Nd7N//37dsfN3OvagwTq979HuVgAAAAAAAABAKXn+o7e08dNt+uGAb6uystKZBqeUg/q8/D6BNw+9TX1j093YSHoAAAAAAAAAQGmyjNiyYp5jGpW3iX+8zrY56ZnuBgAAAAAAAABKl2XElhUT0kfldYZ+OhwAAAAAAAAA4CEzjsrLHPX2INmGhgbV1dXp4toHtOTYi90tse7fvsZ5kIA9UACp2V0n+xWRi2rGuGsAAAAAAAAAoGuYtvFe3Tv0QlVVVSkcDjsPlC1VRXPmFtLbAwQI6dNnfWV9Zn0HAAAAAAAAAOiaiiaot5H06Bj6DgAAAAAAAAC6rqIJ6hlJ33H0HQAAAAAAAAB0XaU76Q8AAAAAAAAAAEWAoB4AAAAAAAAAgAIiqAcAAAAAAAAAoIAI6gEAAAAAAAAAKCCCegAAAAAAAAAACoigHhGbdN9Z0zTlrKXa7K7JvkyOkaxupm3tzLllq1+ysZ9stSUd+TyWX6Ljeuu9kst2FercsyW+/an6tLPn2Zn9e3W80tm2AAAAAAAAdF0E9QCKmIW5C/S4xuonTy7Rw0/O1gSt1I8Idbu4+OtqZaqGu1sLa5dWXu2/gRApV6/Ux5EtmxdO033rIwvrl2rKwk1O7fREztfdR3J27Ljv9o6Vurn1s9ZviW6K+MvNWrnD3Rz4GQAAAAAAUGxKIKgfp3tGX6Xl8eW4ce72NpOHXR5X7yJd5W7za1/vct0ycJRuOdG/Lr4E76vw/IFZLoOyY/T9tMK4fLUnHem2OZVs7ac7C7ruQeusLwnrgyX72fH3l1cvl4rpO2/nGx9k+0q7AL1aY2+3trtl8VSNOmKw+rhbU/n4iZt18xO73Hf54PW1VxZo5tGHachAdzMAAAAAAJ2w4Kaf6JghX9FbGzMZsBa16c2Nzmdv/8mt7hokUwJBfUvkP7NbTz09V2Mj5Rd7vpB6HucL66Mh+4yDWrT+rWgdK0991k/jR1+lew53q0VcdZzVq9SHW/31IsdoXqvZf/DWPav1DVa77Zhjn/6VfursAR0XDRg1j6AWQLrig2xfsRDerZXI5oeXasjJx7jvCuStpZru3FhI4wbL+hVaeMRoDbdR/+l+BgAAAACABC6ddYUOqe6viePO0IbX33DXpmZ1J333TA2qGaTpV1zqrkUyJTT1TUhl1b1VGSmPvbVZH9qqnjXOKPfJw76hE8qlD7f+VHM+jdax8rN10cB96CHeaPhxOqanve7Wxlp/vZ/q2h0hlR/sreupUMjqtR2zsrqyCDs72QjcoFGo/mA8uv2+9fH1EoXnXr1k4Xqy9qQrtj3ONBWt4rf53we1K1Gbo+uzc+7x+4iv5233wja7QZG4XvI2ZetYJtlxTDrt8VidTK67f7S2t/+g8wha5y9B2zt77rHbkn/Hku3HRLdnpQ+PPlKjIue0xtmXd7MrXrrHaasT+/Pl59VLdM7J+jnVZ4PalRs21c2PNFvfH+muiHj8+kgbrl/pvssFf59EyiVLte7oqVrkfOeDrpvfLq1cKv1k5jHSyKnuDYlUnwEAAAAAILE+ffvqsWeXq3rgAJ37j2emFdZbHatrn/mfpx539oHUSnKO+lBleXSh4VN9qFH6eq/KyBsL36tU7uuRsqo39eq+LyJL/XSMM6o+OjZf6q9jj3IXI8qqYj/X9Vkg5oV+7sjTBNONPH69v16hR7rHt3u25LQvnm33tkWXO9Luzp97Ov3shdK23vjrtg9kY9vkr5PNY7Xv50Tnnrg9+VSIc7ftyb5jxdaH6bSnfZ3gn69kMvs+F4zNC39WNKR/2EJvnwnzIm2dN9Z9196O2ne1rna3+64j/H0SKWmM+o+y+e1na8vUaD/aFDzRsD/TawQAAAAAQKxD+vd3wvqBNTVOAP/a2nXulvZsm9WxuvYZ+yzSU5JB/eRhR+lLkdd9+/6iR9RPfSsibxo+U23Y2ewTUpnbQ/3CFpU8o6dt2pyILx1ylZafOFmTnXddkT90iw/I/COWU/F/3j6XOHBMLll7TNv2MSODjhP0ea9eriRqa2dk0vdBErWps/v1JOvnoOueqo9SXfdc6Uh/ZHruiRSiD8foB5H9ezcOxvhGiKfXnmR1si2oL9I5xzTEPJg1AatzyRqNWRz5fsSF9Klt0pr3xmrCe4/4Hubqap2+Jt3viU+qqW+cGwu/lGYvaR393+ec66JBf06uEQAAAACg1Hhhff/qak054xy9uuZld0sbW2fbrA4hfeZKKKg/xJlv3h7s6s0xf+6m1xQaeJD62eZQSM5sNYk4g+nL9du3fqqxW93RkuVDNcP2GfBg2q7PgjF36gVGZeaIP5DsYICXkVK9pvnu53R57Sm161Fk4h8UO3CsrnvyOo0NeBjr8JluEG7TygSE+JsXLpCmTtX3Z4/RmgVxNwRap69JdaMh7nuRYuobm55nSuSwP0jQZgAAAAAAssUJ6597SgMGDtQ/nzVRq/7wkrtFzrKts21Wh5A+cyUU1Psf7DpXM2p7K1wZkrbv1R7bXHGAhjr1gu3Zv9Z5DVVWqbJ2cXQ/XmDf8zj997D0JicoDqlGp/q3WziU61GZmYyW9UKs7hJqWojs9W8ug+R8X9N0ZHLd/exzmfZTvvo5E/5r4S+Z9kVH+rDYtd1c8ebVz8k5btuuhL+s1/ow1gRlof9p9zbtzDT9z9AF0SB/4Fj94NtrND3V6P12qjX29oDvxO1jY28m+NjNA29723Q3/nYq0pfd6bsBAAAAACgkL4ivGTxYF0yc4gT0VmzZ1nlBPjJXQkG9/8GuvVXhTXNT9qw7nc0h7jz0fqP09QPs6bG7tfF933j7cGV0PxbYu2F9S7PzUoIs9PQCz1wFav79+gMsL3QtlhHSnREfJHeHcypGpdzP3rkT2rZKMDLe0fow1oASN0f95oWztfCI2brunGp3TXTqmUUW1scE+umxwP3mJ3a579JjI+un105u19ZFQx/RlIxvGAAAAAAAkJgF8Y88vUw1g2t04aR/0vkTJmvwoYP16LPLCek7oSTnqI9l09ms0voGm3f+ct3i+y5dddxpOqFC+nDrYv27E+yP0z2jL9JVztaIcKVm94v+Goc34r74ZTlMP/pIjXICTxu92ZH9Zqs9bSNw2984KFbWPuu3rhQWJ+vnTK5hOp/J5rGy0c/Zak/Qfkym7ezIsYOkc17J6uRK9JhtD+TN/BydaWGcPnWLTSPTOt97XOlAoO5xRrUHBP7OPPEZz3OfjPVJUD9s0ponI30U2IZLNVPbFT9lPgAAAAAAnVFjwfwzFswP0KCaQfrtiic1cNAgdys6gqA+IlT5uua8NFdPfVapE4ZE57G3Mr5ndLqcGbWVbke1RP7r1zrXvVOnlwX5kTr+Efddnj+U84KsBdK8oHDRHlLpH8HZmcCws+Lb7bW5WAX3c3AoGVQ33UDXZHJNUx2rfT93PixOJNWxgs8rNjxOVKcj/Zytc8+kTfmQznm1r1PcP19ugB7z51OSktVAPd+O0ZizItcl4GbDx0/8UgtVI8YzAAAAAACyzcL6Vze97hRbRueE6uvrncek5lJzc7MaGhpUV1eni2sf0JJjL3a3tJm28V53Kdua1LhrX+R/eypc7QXuwZrr9qrhM/eNI/4z3r5ilffxTaXjaFHTJ5+ocX/qY2ZLUJ/mljua1h5ymGT+ZADITPxI/ULdvEjC5q9fPTqDcD9yTldv08Q0/6y0qW+m/+Jd9117E+a5D7WNE/i5s2Z38ZsQAAAAAIDuzDLhe4deqKqqKoXDYZWVle648hII6ktD/oN6AAAAAAAAAOg4gvo2pXvmAAAAAAAAAAAUAYJ6AAAAAAAAAAAKiKAeAAAAAAAAAIACIqgHAAAAAAAAAKCAiiao71kWdpeQKfoOAAAAAAAAALquognqT+l9hLuETNF3AAAAAAAAANB1FU1Qf1HNGJ3e92hGh2fA+sr6zPoOAAAAAAAAANA1herr61vc5Zxpbm5WQ0OD6urqdHHtA1py7MXuFgAAAAAAAABAKZq28V7dO/RCVVVVKRwOq6ysdB+pmtczD4VC7hIAAAAAAAAAoNSRGUflLai3DrfSo6xCXzQ3uGsBAAAAAAAAAKXGMmLLir3cuNTlJaj3Oru8vFzHVw3Wqr3vuVsAAAAAAAAAAKXGMmLLii0zJqzP44h6m1/IOn3SwcfrwR1/0vMfvcXIegAAAAAAAAAoIZYJWzZsGbFlxZYZl/Lc9J68PEzW2ANlm5qanIfKvlu3S49+8obeqNum+uZGtwYAAAAAAAAAoDuz6W5sJL2F9EdWVTsPkSWsz2NQ39LS4hQL6xsbG51XK956AAAAAAAAAED35Z8i3UpFRYXzytQ3eQzqjRfKW7ER9oT0AAAAAAAAAFA6vFDeRtB7y6Ue0pu8BvUeL5wnpAcAAAAAAACA0uIF8wT0bQoS1AMAAAAAAAAAgCgepwsAAAAAAAAAQAER1AMAAAAAAAAAUEAE9QAAAAAAAAAAFBBBPQAAAAAAAAAABURQDwAAAAAAAABAARHUAwAAAAAAAABQQAT1AAAAAAAAAAAUEEE9AAAAAAAAAAAFFKqvr29xl/OmpSV6SO8VAAAAAAAAAFAaQqFQzCvyHNRbMO+V5ubm1mUAAAAAAAAAQPdn4byVsrKy1mUC+zwG9V4o39TUpMbGRufVCmE9AAAAAAAAAHR/XihfXl7ulIqKCueVsD6PQb2NoLdgvqGhQe/W7dKjn7yhN+q2qb650a0BAAAAAAAAAOjOepRV6PiqwZp08PE6sqpa4XDYCetthH0py0tQbyPmLaiPHEvvfLZTN/1thc4f+DWd0vsI9SwLu7UAAAAAAAAAAN3ZF80NWrX3PT2440+6YdB4HXXAAPXo0aN1KpxSlbeg3qa72b9/v+7Y+Tsde9Bgnd73aHcrAAAAAAAAAKCUPP/RW9r46Tb9cMC3VVlZ6UyDU8pBfV5+n8Cbh96mvrHpbmwkPQAAAAAAAACgNFlGbFkxzzGNytvEP15n25z0THcDAAAAAAAAAKXLMmLLignpo/I6Qz8dDgAAAAAAAADwkBlH5WWOenuQbENDg+rq6nRx7QNacuzF7pZY929f4zxIwB4ogNTsrpP9ishFNWPcNQAAAAAAAADQNUzbeK/uHXqhqqqqFA6HnQfKlqqiOXML6e0BAoT06bO+sj6zvgMAAAAAAAAAdE1FE9TbSHp0DH0HAAAAAAAAAF1X0QT1jKTvOPoOAAAAAAAAALqu0p30BwAAAAAAAACAIkBQDwAAAAAAAABAARHUAwAAAAAAAABQQAT1AAAAAAAAAAAUEEE9AAAAAAAAAAAFRFCPiE2676xpmnLWUm1212RfJsdIVjfTtnbm3LLVL9nYT7bako58Hssv0XG99V7JZbsKde7Zkqz9xXRu6balq18PAAAAAACA9BDUAyhiFtQu0OMaq588uUQPPzlbE7RSPyK4RdHbpZVX200GX7l6pT6ObNm8cJruWx9ZWL9UUxZucmqnJ/Lz4O4jXa3H8kt6XGt3ohs92fm527zwZq3c4b6JF9i25Mf++Imb259jROC5AwAAAABQpEogqB+ne0ZfpeXx5bhx7vY2k4ddHlfvIl3lbvNrX+9y3TJwlG450b8uvgTvq/D8QehUDXfXZt8x+r4TtKY6Rr7ak45025xKtvbTnQVd96B11peE9cGK6WcnW4rpZ8f6Ny5495d2AXq1xt5ubXfL4qkadcRg9XG3pmLh881P7HLfZSL2BsGPnpQev77tfcf2mQnrp/ifzci6JDcY7Fy99k25fqX05IK29xnemAAAAAAAZNeCm36iY4Z8RW9tzGSgWdSmNzc6n739J7e6a5BMCQT1LZH/zG499fRcjY2UX+z5Qup5nC+sj4bsMw5q0fq3onWsPPVZP40ffZXuOdytFnHVcVavUh9u9deLHKN5rWb/wVv3rNY3WO22Y459+lf6qbMHdFw0iNQ8gloA+ebdNAgoFsK7tRLZ/PBSDTn5GPddLsXdIIgr151T7dZLYMfrWvPWSq1xRqL7Q3+7CZSI1UsySj6FPudcF9hWp9w+NsXNjV1a+7t39fjq6P9h9If+dpMCAAAAANA5l866QodU99fEcWdow+tvuGtTs7qTvnumBtUM0vQrLnXXIpkSmvompLLq3qqMlMfe2qwPbVXPGmeU++Rh39AJ5dKHW3+qOZ9G61j52bpo4D70EG80/Dgd09Ned2tjrb/eT3XtjpDKD/bW9VQoZPXajllZXVmEnZ1sBG7Q6FF/MB7dft/6+HqJwnOvXrJwPVl70hXbnthpD+K3+d8HtStRm6Prs3Pu8fuIr+dt90Iyu0GRuF7yNmXrWCbZcUw67fFYnUyuu3+Utbf/oPMIWucvQds7e+6x25J/x5Ltx0S356YP/dI9Tvz2oDomWT1vWzr9bLz6idqSzvr49gQdJ7dsCpYfaba+P9JdEeGMcrfR4zkSM0rdKekF6c4NhcunastSG8nuD/3tBmkC61do4RGTNXag+74jdqzUzTHtTXP0v3PsqZr53iPO+flD/5+c5dYBAAAAAHRYn7599dizy1U9cIDO/ccz0wrrrY7Vtc/8z1OPO/tAaiU5R32osjy60PCpPtQofb1XZeSNhe9VKvf1SFnVm3p13xeRpX46xhlVHx2bL/XXsUe5ixFlVbGf6/os2PJCP39I034U++PX++sVeqR7fLtnS0774tl2b1t0uSPt7vy5p9PPXiht642/bvtANrZN/jrZPFb7fk507onbk0+FOHfbnuw7Vnx9mPz7nE4fmlT1Mvs+d176/ZwTbvhsIf3DM2NH00+YF2nPvLHuu/Z21L6rdbW73XcZihz3P343Rota+9bKZG1Z4JtGxp1exh+G2w2F/xm6QN8/Z6yum7pd09Ocdmbz6g80c4r//KyP/aG7XYNkdmnlgjUas9jf3iX6p9pf+m4uuPv0t8nms19ao0Uzx2rs7ZHzu6Tjo/oBAAAAAIkd0r+/E9YPrKlxAvjX1q5zt7Rn26yO1bXP2GeRnpIM6icPO0pfirzu2/cXPaJ+6lsRedPwmWrDzmafkMrcHuoXtokNntHTNm1OxJcOuUrLT5ysyc67rsgfYMUHZP4Ry6n4P2+f62gQlqw9pm37mJFBxwn6vFcvVxK1tTMy6fsgidrU2f16kvVz0HVP1UeprnuudKQ/Mj33RIq1D5N9Pp3+StSOjvR1KkH9FX/8bF2vABbApwqxrc4lbvgcF9Kntklr3hurCe4o8RhvLdV0J/xO0v6BY/WDb69x63nlEQ2Z7ZtG5qzZkWviTYUTneLGQvrWqXFGTtXD6YT1kfP8n/fGaHTMaHrrc7vmXrE+T6ZaY2eP0ZpL/O219lzqG6Xv7tOdCsf5jQEL6VunxrFrS1gPAAAAALnihfX9q6s15Yxz9Oqal90tbWydbbM6hPSZK6Gg/hBnvnl7sKs3x/y5m15TaOBB6mebQyE5s9Uk4gymL9dv3/qpxm51RzmWD9UM22fAg2m7Pgu5/KGJBV7ILn9oaH3cieAwLaV6TfPdz+ny2tNVrkdX/f7kqZ/jHxQ7cKyue/K6wOlghs9cEp0Gx8LwgBB/88IF0tSp+r6F1/5R8Oboqe5I+eQ3PrwpYGz6F2f0foK2REWnuGk3f721L8Uc8R+/skZDpqaaRz4NTn9F2mm/ZRBzEyGYc37t2mY/68nOEwAAAADQGU5Y/9xTGjBwoP75rIla9YeX3C1ylm2dbbM6hPSZK6Gg3v9g17maUdtb4cqQtH2v9tjmigM01KkXbM/+tc5rqLJKlbWLo/vxAvuex+m/h6V6lGAxCRpp6uffbgGPlVQjIjsjVXv8vNCtq4SEqViw5PVvLoPkfF/TdGRy3f3sc5n2U776ORP+a+EvmfZFR/owU8X4/Wm7AbPGmV8/UT9ko59T2LZdCX/pz6Zncb5vCcpC/1Pz20a2O0G+NzI+zSlooryfj2ixB6o68+H71qWcGz+ozVdv08R2fbZJj/3iMI3xzb3fETblTutxrG3utDxtxa5tMrHnHC03a8sU94YIAAAAACBrvCC+ZvBgXTBxihPQW7FlW+cF+chcCQX1/ge79laFN81N2bPudDaHuPPQ+43S1w+wp8fu1sb3fePtw5XR/Vhg74b1Lc3OSwmy0NMLPHMVGgaFhFa80LVYRkh3RnyQ3B3OqRjRz8iBBCPjHbYt5s8tX4mbo37zwtlaeMTsmJHkNnJ8kYX1MYF+Mt53PElJMjd+65Qy8Z+xaXDif17Wr9XjZ40O+LPeuxnmleRBu/2GQcyx2pUkN4Wc5wA8oiFx89s7c/JfYg9JdusBAAAAALLGgvhHnl6mmsE1unDSP+n8CZM1+NDBevTZ5YT0nVCSc9THsulsVml9g807f7lu8X2XrjruNJ1QIX24dbH+3Qn2x+me0RfpKmdrRLhSs/tFf43DG3Ff/LIcph99pEa1hjId2W+22tM2urb9jYNiZe2zfutKYXGyfs7kGqbzmWweKxv9nK32BO3HZNrOjhw7l7J1XpmIHrPtob3+fshee2JGfFu5ZKnWtc4VH1fSDtTbcwLrgMDfmealA/PcR88zoCQcUb9La38nzfTPZe8ZOV4zj/5AW1rnf9+llUvjHyJrrN/jQ/NISTGFjmnXz63Frm8wm3pHl/vnsvcco4mXH6ktW9oelgsAAAAAyJ4aC+afsWB+gAbVDNJvVzypgYMGuVvREQT1EaHK1zXnpbl66rNKnTAkOo+9lfE9o9PlzKitdDuqJfJfv9a57p06vSzIj9Txj7jv8vwBV1tQonlBodcY/SAmkClkYBjfbq/NxSq4n4OD16C6mQSfmVzTVMdq38+5C4tTHSv4vGJDvUR1OtLP2Tr3TNpUDILb2/77k+55pernbMlOP6ce8e0rGQfquWTnGdBGK4HtrNbob0sL4+fFN+tXaOFbh2mIF4jveF1rIn/+xz5EtvOi8+kHleDr1ecbY6Rf/DLgAbI2Lc+7GjIk8Tz3AAAAAIDOsbD+1U2vO8WW0Tmh+vp65zGpudTc3KyGhgbV1dXp4toHtOTYi90tbaZtvNddyrYmNe7aF/nfngpXe4F7sOa6vWr4zH3jiP+Mt69Y5X18U+k4WtT0ySdq3J/6mNkS1Ke55Y7mtQcbpjFSEgAQx+aCXz06g3A/8ueuzRWf1p+57p/R7rv2ktyssHbFj7qP+7Pepsh5bMh1HZoDfvNCmz++/UNfbUS9zamfiIX4wccLOtcjNXMxD5YFAAAAgGJnmfC9Qy9UVVWVwuGwyspKd1x5CQT1pSH/QT0AoDRZML5WY4rytz8AAAAAAF0JQX2b0j1zAADQATalECE9AAAAAADZRFAPAAAAAAAAAEABEdQDAAAAAAAAAFBABPUAAAAAAAAAABRQ0QT1PcvC7hIyRd8BAAAAAAAAQNdVNEH9Kb2PcJeQKfoOAAAAAAAAALquognqL6oZo9P7Hs3o8AxYX1mfWd8BAAAAAAAAALqmUH19fYu7nDPNzc1qaGhQXV2dLq59QEuOvdjdAgAAAAAAAAAoRdM23qt7h16oqqoqhcNhlZWV7iNV83rmoVDIXQIAAAAAAAAAlDoy46i8BfXW4VZ6lFXoi+YGdy0AAAAAAAAAoNRYRmxZsZcbl7q8BPVeZ5eXl+v4qsFatfc9dwsAAAAAAAAAoNRYRmxZsWXGhPV5HFFv8wtZp086+Hg9uONPev6jtxhZDwAAAAAAAAAlxDJhy4YtI7as2DLjUp6b3pOXh8kae6BsU1OT81DZd+t26dFP3tAbddtU39zo1gAAAAAAAAAAdGc23Y2NpLeQ/siqauchsoT1eQzqW1panGJhfWNjo/NqxVsPAAAAAAAAAOi+/FOkW6moqHBemfomj0G98UJ5KzbCnpAeAAAAAAAAAEqHF8rbCHpvudRDepPXoN7jhfOE9AAAAAAAAABQWrxgnoC+TUGCegAAAAAAAAAAEMXjdAEAAAAAAAAAKCCCegAAAAAAAAAACoigHgAAAAAAAACAAiKoBwAAAAAAAACggAjqAQAAAAAAAAAoIIJ6AAAAAAAAAAAKiKAeAAAAAAAAAIACIqgHAAAAAAAAAKCACOoBAAAAAAAAACgggnoAAAAAAAAAAAqIoB4AAAAAAAAAgAIiqAcAAAAAAAAAoIAI6gEAAAAAAAAAKCCCegAAAAAAAAAACkb6/wFS/v8GSTPM2gAAAABJRU5ErkJggg==;" vertex="1" parent="1">
          <mxGeometry x="-1340" y="40" width="1270" height="285.2" as="geometry" />
        </mxCell>
      </root>
    </mxGraphModel>
  </diagram>
  <diagram id="gIcye0ySe20oXbrMmUOA" name="DTO">
    <mxGraphModel dx="2049" dy="1206" grid="1" gridSize="10" guides="1" tooltips="1" connect="1" arrows="1" fold="1" page="1" pageScale="1" pageWidth="1390" pageHeight="980" math="0" shadow="0">
      <root>
        <mxCell id="0" />
        <mxCell id="1" parent="0" />
        <mxCell id="kOxPUE_Oga2xAse4ptvW-2" value="&lt;div style=&quot;font-size: 14px;&quot;&gt;&lt;div style=&quot;font-size: 14px;&quot;&gt;public class CustomerDTO&lt;/div&gt;&lt;div style=&quot;font-size: 14px;&quot;&gt;&lt;span style=&quot;font-size: 14px;&quot;&gt;{&lt;/span&gt;&lt;/div&gt;&lt;div style=&quot;font-size: 14px;&quot;&gt;&lt;span style=&quot;font-size: 14px;&quot;&gt;&amp;nbsp; &amp;nbsp; /// &amp;lt;summary&amp;gt;&lt;/span&gt;&lt;/div&gt;&lt;div style=&quot;font-size: 14px;&quot;&gt;&lt;span style=&quot;font-size: 14px;&quot;&gt;&amp;nbsp; &amp;nbsp; /// 고객 식별자&lt;/span&gt;&lt;/div&gt;&lt;div style=&quot;font-size: 14px;&quot;&gt;&lt;span style=&quot;font-size: 14px;&quot;&gt;&amp;nbsp; &amp;nbsp; /// &amp;lt;/summary&amp;gt;&lt;/span&gt;&lt;/div&gt;&lt;div style=&quot;font-size: 14px;&quot;&gt;&lt;span style=&quot;font-size: 14px;&quot;&gt;&amp;nbsp; &amp;nbsp; [Required]&lt;/span&gt;&lt;/div&gt;&lt;div style=&quot;font-size: 14px;&quot;&gt;&lt;span style=&quot;font-size: 14px;&quot;&gt;&amp;nbsp; &amp;nbsp; public string Id { get; set; }&lt;/span&gt;&lt;/div&gt;&lt;div style=&quot;font-size: 14px;&quot;&gt;&lt;span style=&quot;font-size: 14px;&quot;&gt;&lt;br style=&quot;font-size: 14px;&quot;&gt;&lt;/span&gt;&lt;/div&gt;&lt;div style=&quot;font-size: 14px;&quot;&gt;&lt;span style=&quot;font-size: 14px;&quot;&gt;&amp;nbsp; &amp;nbsp; /// &amp;lt;summary&amp;gt;&lt;/span&gt;&lt;/div&gt;&lt;div style=&quot;font-size: 14px;&quot;&gt;&lt;span style=&quot;font-size: 14px;&quot;&gt;&amp;nbsp; &amp;nbsp; /// 고객 구분&lt;/span&gt;&lt;/div&gt;&lt;div style=&quot;font-size: 14px;&quot;&gt;&lt;span style=&quot;font-size: 14px;&quot;&gt;&amp;nbsp; &amp;nbsp; /// &amp;lt;/summary&amp;gt;&lt;/span&gt;&lt;/div&gt;&lt;div style=&quot;font-size: 14px;&quot;&gt;&lt;span style=&quot;font-size: 14px;&quot;&gt;&amp;nbsp; &amp;nbsp; public string Type { get; set; }&lt;/span&gt;&lt;/div&gt;&lt;div style=&quot;font-size: 14px;&quot;&gt;&lt;span style=&quot;font-size: 14px;&quot;&gt;&lt;br style=&quot;font-size: 14px;&quot;&gt;&lt;/span&gt;&lt;/div&gt;&lt;div style=&quot;font-size: 14px;&quot;&gt;&lt;span style=&quot;font-size: 14px;&quot;&gt;&amp;nbsp; &amp;nbsp; /// &amp;lt;summary&amp;gt;&lt;/span&gt;&lt;/div&gt;&lt;div style=&quot;font-size: 14px;&quot;&gt;&lt;span style=&quot;font-size: 14px;&quot;&gt;&amp;nbsp; &amp;nbsp; /// 고객 사업장 명&lt;/span&gt;&lt;/div&gt;&lt;div style=&quot;font-size: 14px;&quot;&gt;&lt;span style=&quot;font-size: 14px;&quot;&gt;&amp;nbsp; &amp;nbsp; /// &amp;lt;/summary&amp;gt;&lt;/span&gt;&lt;/div&gt;&lt;div style=&quot;font-size: 14px;&quot;&gt;&lt;span style=&quot;font-size: 14px;&quot;&gt;&amp;nbsp; &amp;nbsp; public string Name { get; set; }&lt;/span&gt;&lt;/div&gt;&lt;div style=&quot;font-size: 14px;&quot;&gt;&lt;span style=&quot;font-size: 14px;&quot;&gt;&lt;br style=&quot;font-size: 14px;&quot;&gt;&lt;/span&gt;&lt;/div&gt;&lt;div style=&quot;font-size: 14px;&quot;&gt;&lt;span style=&quot;font-size: 14px;&quot;&gt;&amp;nbsp; &amp;nbsp; /// &amp;lt;summary&amp;gt;&lt;/span&gt;&lt;/div&gt;&lt;div style=&quot;font-size: 14px;&quot;&gt;&lt;span style=&quot;font-size: 14px;&quot;&gt;&amp;nbsp; &amp;nbsp; /// 고객 번호 (사업자 번호와 같은 고유 식별자 코드)&lt;/span&gt;&lt;/div&gt;&lt;div style=&quot;font-size: 14px;&quot;&gt;&lt;span style=&quot;font-size: 14px;&quot;&gt;&amp;nbsp; &amp;nbsp; /// &amp;lt;/summary&amp;gt;&lt;/span&gt;&lt;/div&gt;&lt;div style=&quot;font-size: 14px;&quot;&gt;&lt;span style=&quot;font-size: 14px;&quot;&gt;&amp;nbsp; &amp;nbsp; public string? UniqueCode { get; set; }&lt;/span&gt;&lt;/div&gt;&lt;div style=&quot;font-size: 14px;&quot;&gt;&lt;span style=&quot;font-size: 14px;&quot;&gt;&lt;br style=&quot;font-size: 14px;&quot;&gt;&lt;/span&gt;&lt;/div&gt;&lt;div style=&quot;font-size: 14px;&quot;&gt;&lt;span style=&quot;font-size: 14px;&quot;&gt;&amp;nbsp; &amp;nbsp; /// &amp;lt;summary&amp;gt;&lt;/span&gt;&lt;/div&gt;&lt;div style=&quot;font-size: 14px;&quot;&gt;&lt;span style=&quot;font-size: 14px;&quot;&gt;&amp;nbsp; &amp;nbsp; /// 대표자 명&lt;/span&gt;&lt;/div&gt;&lt;div style=&quot;font-size: 14px;&quot;&gt;&lt;span style=&quot;font-size: 14px;&quot;&gt;&amp;nbsp; &amp;nbsp; /// &amp;lt;/summary&amp;gt;&lt;/span&gt;&lt;/div&gt;&lt;div style=&quot;font-size: 14px;&quot;&gt;&lt;span style=&quot;font-size: 14px;&quot;&gt;&amp;nbsp; &amp;nbsp; public string President { get; set; }&lt;/span&gt;&lt;/div&gt;&lt;div style=&quot;font-size: 14px;&quot;&gt;&lt;span style=&quot;font-size: 14px;&quot;&gt;&lt;br style=&quot;font-size: 14px;&quot;&gt;&lt;/span&gt;&lt;/div&gt;&lt;div style=&quot;font-size: 14px;&quot;&gt;&lt;span style=&quot;font-size: 14px;&quot;&gt;&amp;nbsp; &amp;nbsp; /// &amp;lt;summary&amp;gt;&lt;/span&gt;&lt;/div&gt;&lt;div style=&quot;font-size: 14px;&quot;&gt;&lt;span style=&quot;font-size: 14px;&quot;&gt;&amp;nbsp; &amp;nbsp; /// 주소&lt;/span&gt;&lt;/div&gt;&lt;div style=&quot;font-size: 14px;&quot;&gt;&lt;span style=&quot;font-size: 14px;&quot;&gt;&amp;nbsp; &amp;nbsp; /// &amp;lt;/summary&amp;gt;&lt;/span&gt;&lt;/div&gt;&lt;div style=&quot;font-size: 14px;&quot;&gt;&lt;span style=&quot;font-size: 14px;&quot;&gt;&amp;nbsp; &amp;nbsp; public string? Address { get; set; }&lt;/span&gt;&lt;/div&gt;&lt;div style=&quot;font-size: 14px;&quot;&gt;&lt;span style=&quot;font-size: 14px;&quot;&gt;&lt;br style=&quot;font-size: 14px;&quot;&gt;&lt;/span&gt;&lt;/div&gt;&lt;div style=&quot;font-size: 14px;&quot;&gt;&lt;span style=&quot;font-size: 14px;&quot;&gt;&amp;nbsp; &amp;nbsp; /// &amp;lt;summary&amp;gt;&lt;/span&gt;&lt;/div&gt;&lt;div style=&quot;font-size: 14px;&quot;&gt;&lt;span style=&quot;font-size: 14px;&quot;&gt;&amp;nbsp; &amp;nbsp; /// 폐업 여부&lt;/span&gt;&lt;/div&gt;&lt;div style=&quot;font-size: 14px;&quot;&gt;&lt;span style=&quot;font-size: 14px;&quot;&gt;&amp;nbsp; &amp;nbsp; /// &amp;lt;/summary&amp;gt;&lt;/span&gt;&lt;/div&gt;&lt;div style=&quot;font-size: 14px;&quot;&gt;&lt;span style=&quot;font-size: 14px;&quot;&gt;&amp;nbsp; &amp;nbsp; public string IsTermination { get; set; }&lt;/span&gt;&lt;/div&gt;&lt;div style=&quot;font-size: 14px;&quot;&gt;&lt;span style=&quot;font-size: 14px;&quot;&gt;&lt;br style=&quot;font-size: 14px;&quot;&gt;&lt;/span&gt;&lt;/div&gt;&lt;div style=&quot;font-size: 14px;&quot;&gt;&lt;span style=&quot;font-size: 14px;&quot;&gt;&amp;nbsp; &amp;nbsp; /// &amp;lt;summary&amp;gt;&lt;/span&gt;&lt;/div&gt;&lt;div style=&quot;font-size: 14px;&quot;&gt;&lt;span style=&quot;font-size: 14px;&quot;&gt;&amp;nbsp; &amp;nbsp; /// 설명&lt;/span&gt;&lt;/div&gt;&lt;div style=&quot;font-size: 14px;&quot;&gt;&lt;span style=&quot;font-size: 14px;&quot;&gt;&amp;nbsp; &amp;nbsp; /// &amp;lt;/summary&amp;gt;&lt;/span&gt;&lt;/div&gt;&lt;div style=&quot;font-size: 14px;&quot;&gt;&lt;span style=&quot;font-size: 14px;&quot;&gt;&amp;nbsp; &amp;nbsp; public string? Description { get; set; }&lt;/span&gt;&lt;/div&gt;&lt;div style=&quot;font-size: 14px;&quot;&gt;&lt;span style=&quot;font-size: 14px;&quot;&gt;}&lt;/span&gt;&lt;/div&gt;&lt;/div&gt;" style="rounded=0;whiteSpace=wrap;html=1;align=left;fontSize=14;" vertex="1" parent="1">
          <mxGeometry x="30" y="20" width="1290" height="920" as="geometry" />
        </mxCell>
        <mxCell id="tHV4ukD74e7GTwq4VUuc-1" value="&lt;div style=&quot;font-size: 14px;&quot;&gt;&lt;div style=&quot;font-size: 14px;&quot;&gt;&lt;div style=&quot;font-size: 14px;&quot;&gt;public class CustomerRegisterDTO&lt;/div&gt;&lt;div style=&quot;font-size: 14px;&quot;&gt;{&lt;/div&gt;&lt;div style=&quot;font-size: 14px;&quot;&gt;&amp;nbsp; &amp;nbsp; /// &amp;lt;summary&amp;gt;&lt;/div&gt;&lt;div style=&quot;font-size: 14px;&quot;&gt;&amp;nbsp; &amp;nbsp; /// 고객사 구분&lt;/div&gt;&lt;div style=&quot;font-size: 14px;&quot;&gt;&amp;nbsp; &amp;nbsp; /// &amp;lt;/summary&amp;gt;&lt;/div&gt;&lt;div style=&quot;font-size: 14px;&quot;&gt;&amp;nbsp; &amp;nbsp; public string Type { get; set; }&lt;/div&gt;&lt;div style=&quot;font-size: 14px;&quot;&gt;&lt;br style=&quot;font-size: 14px;&quot;&gt;&lt;/div&gt;&lt;div style=&quot;font-size: 14px;&quot;&gt;&amp;nbsp; &amp;nbsp; /// &amp;lt;summary&amp;gt;&lt;/div&gt;&lt;div style=&quot;font-size: 14px;&quot;&gt;&amp;nbsp; &amp;nbsp; /// 고객사 명&lt;/div&gt;&lt;div style=&quot;font-size: 14px;&quot;&gt;&amp;nbsp; &amp;nbsp; /// &amp;lt;/summary&amp;gt;&lt;/div&gt;&lt;div style=&quot;font-size: 14px;&quot;&gt;&amp;nbsp; &amp;nbsp; public string Name { get; set; }&lt;/div&gt;&lt;div style=&quot;font-size: 14px;&quot;&gt;&lt;br style=&quot;font-size: 14px;&quot;&gt;&lt;/div&gt;&lt;div style=&quot;font-size: 14px;&quot;&gt;&amp;nbsp; &amp;nbsp; /// &amp;lt;summary&amp;gt;&lt;/div&gt;&lt;div style=&quot;font-size: 14px;&quot;&gt;&amp;nbsp; &amp;nbsp; /// 대표자 명&lt;/div&gt;&lt;div style=&quot;font-size: 14px;&quot;&gt;&amp;nbsp; &amp;nbsp; /// &amp;lt;/summary&amp;gt;&lt;/div&gt;&lt;div style=&quot;font-size: 14px;&quot;&gt;&amp;nbsp; &amp;nbsp; public string President { get; set; }&lt;/div&gt;&lt;div style=&quot;font-size: 14px;&quot;&gt;&lt;br style=&quot;font-size: 14px;&quot;&gt;&lt;/div&gt;&lt;div style=&quot;font-size: 14px;&quot;&gt;&amp;nbsp; &amp;nbsp; /// &amp;lt;summary&amp;gt;&lt;/div&gt;&lt;div style=&quot;font-size: 14px;&quot;&gt;&amp;nbsp; &amp;nbsp; /// 고객사 주소&lt;/div&gt;&lt;div style=&quot;font-size: 14px;&quot;&gt;&amp;nbsp; &amp;nbsp; /// &amp;lt;/summary&amp;gt;&lt;/div&gt;&lt;div style=&quot;font-size: 14px;&quot;&gt;&amp;nbsp; &amp;nbsp; public string? Address { get; set; }&lt;/div&gt;&lt;div style=&quot;font-size: 14px;&quot;&gt;&lt;br style=&quot;font-size: 14px;&quot;&gt;&lt;/div&gt;&lt;div style=&quot;font-size: 14px;&quot;&gt;&amp;nbsp; &amp;nbsp; /// &amp;lt;summary&amp;gt;&lt;/div&gt;&lt;div style=&quot;font-size: 14px;&quot;&gt;&amp;nbsp; &amp;nbsp; /// 고객사 번호(사업자 번호)&lt;/div&gt;&lt;div style=&quot;font-size: 14px;&quot;&gt;&amp;nbsp; &amp;nbsp; /// &amp;lt;/summary&amp;gt;&lt;/div&gt;&lt;div style=&quot;font-size: 14px;&quot;&gt;&amp;nbsp; &amp;nbsp; public string? UniqueCode { get; set; }&lt;/div&gt;&lt;div style=&quot;font-size: 14px;&quot;&gt;&lt;br style=&quot;font-size: 14px;&quot;&gt;&lt;/div&gt;&lt;div style=&quot;font-size: 14px;&quot;&gt;&amp;nbsp; &amp;nbsp; /// &amp;lt;summary&amp;gt;&lt;/div&gt;&lt;div style=&quot;font-size: 14px;&quot;&gt;&amp;nbsp; &amp;nbsp; /// 고객사 설명&lt;/div&gt;&lt;div style=&quot;font-size: 14px;&quot;&gt;&amp;nbsp; &amp;nbsp; /// &amp;lt;/summary&amp;gt;&lt;/div&gt;&lt;div style=&quot;font-size: 14px;&quot;&gt;&amp;nbsp; &amp;nbsp; public string? Description { get; set; }&lt;/div&gt;&lt;div style=&quot;font-size: 14px;&quot;&gt;}&lt;/div&gt;&lt;/div&gt;&lt;/div&gt;" style="rounded=0;whiteSpace=wrap;html=1;align=left;fontSize=14;" vertex="1" parent="1">
          <mxGeometry x="30" y="1000" width="1290" height="540" as="geometry" />
        </mxCell>
        <mxCell id="tHV4ukD74e7GTwq4VUuc-2" value="&lt;div style=&quot;&quot;&gt;&lt;div style=&quot;&quot;&gt;&lt;div style=&quot;&quot;&gt;&lt;div style=&quot;&quot;&gt;public class CustomerModifyDTO&lt;/div&gt;&lt;div style=&quot;&quot;&gt;{&lt;/div&gt;&lt;div style=&quot;&quot;&gt;&amp;nbsp; &amp;nbsp; /// &amp;lt;summary&amp;gt;&lt;/div&gt;&lt;div style=&quot;&quot;&gt;&amp;nbsp; &amp;nbsp; /// 고객사 ID&lt;/div&gt;&lt;div style=&quot;&quot;&gt;&amp;nbsp; &amp;nbsp; /// &amp;lt;/summary&amp;gt;&lt;/div&gt;&lt;div style=&quot;&quot;&gt;&amp;nbsp; &amp;nbsp; public string Id { get; set; }&lt;/div&gt;&lt;div style=&quot;&quot;&gt;&lt;br&gt;&lt;/div&gt;&lt;div style=&quot;&quot;&gt;&amp;nbsp; &amp;nbsp; /// &amp;lt;summary&amp;gt;&lt;/div&gt;&lt;div style=&quot;&quot;&gt;&amp;nbsp; &amp;nbsp; /// 고객사 구분&lt;/div&gt;&lt;div style=&quot;&quot;&gt;&amp;nbsp; &amp;nbsp; /// &amp;lt;/summary&amp;gt;&lt;/div&gt;&lt;div style=&quot;&quot;&gt;&amp;nbsp; &amp;nbsp; public string Type { get; set; }&lt;/div&gt;&lt;div style=&quot;&quot;&gt;&lt;br&gt;&lt;/div&gt;&lt;div style=&quot;&quot;&gt;&amp;nbsp; &amp;nbsp; /// &amp;lt;summary&amp;gt;&lt;/div&gt;&lt;div style=&quot;&quot;&gt;&amp;nbsp; &amp;nbsp; /// 고객사 명&lt;/div&gt;&lt;div style=&quot;&quot;&gt;&amp;nbsp; &amp;nbsp; /// &amp;lt;/summary&amp;gt;&lt;/div&gt;&lt;div style=&quot;&quot;&gt;&amp;nbsp; &amp;nbsp; public string Name { get; set; }&lt;/div&gt;&lt;div style=&quot;&quot;&gt;&lt;br&gt;&lt;/div&gt;&lt;div style=&quot;&quot;&gt;&amp;nbsp; &amp;nbsp; /// &amp;lt;summary&amp;gt;&lt;/div&gt;&lt;div style=&quot;&quot;&gt;&amp;nbsp; &amp;nbsp; /// 대표자 명&lt;/div&gt;&lt;div style=&quot;&quot;&gt;&amp;nbsp; &amp;nbsp; /// &amp;lt;/summary&amp;gt;&lt;/div&gt;&lt;div style=&quot;&quot;&gt;&amp;nbsp; &amp;nbsp; public string President { get; set; }&lt;/div&gt;&lt;div style=&quot;&quot;&gt;&lt;br&gt;&lt;/div&gt;&lt;div style=&quot;&quot;&gt;&amp;nbsp; &amp;nbsp; /// &amp;lt;summary&amp;gt;&lt;/div&gt;&lt;div style=&quot;&quot;&gt;&amp;nbsp; &amp;nbsp; /// 고객사 주소&lt;/div&gt;&lt;div style=&quot;&quot;&gt;&amp;nbsp; &amp;nbsp; /// &amp;lt;/summary&amp;gt;&lt;/div&gt;&lt;div style=&quot;&quot;&gt;&amp;nbsp; &amp;nbsp; public string? Address { get; set; }&lt;/div&gt;&lt;div style=&quot;&quot;&gt;&lt;br&gt;&lt;/div&gt;&lt;div style=&quot;&quot;&gt;&amp;nbsp; &amp;nbsp; /// &amp;lt;summary&amp;gt;&lt;/div&gt;&lt;div style=&quot;&quot;&gt;&amp;nbsp; &amp;nbsp; /// 고객사 번호(사업자 번호)&lt;/div&gt;&lt;div style=&quot;&quot;&gt;&amp;nbsp; &amp;nbsp; /// &amp;lt;/summary&amp;gt;&lt;/div&gt;&lt;div style=&quot;&quot;&gt;&amp;nbsp; &amp;nbsp; public string? UniqueCode { get; set; }&lt;/div&gt;&lt;div style=&quot;&quot;&gt;&lt;br&gt;&lt;/div&gt;&lt;div style=&quot;&quot;&gt;&amp;nbsp; &amp;nbsp; /// &amp;lt;summary&amp;gt;&lt;/div&gt;&lt;div style=&quot;&quot;&gt;&amp;nbsp; &amp;nbsp; /// 고객사 설명&lt;/div&gt;&lt;div style=&quot;&quot;&gt;&amp;nbsp; &amp;nbsp; /// &amp;lt;/summary&amp;gt;&lt;/div&gt;&lt;div style=&quot;&quot;&gt;&amp;nbsp; &amp;nbsp; public string? Description { get; set; }&lt;/div&gt;&lt;div style=&quot;&quot;&gt;}&lt;/div&gt;&lt;/div&gt;&lt;/div&gt;&lt;/div&gt;" style="rounded=0;whiteSpace=wrap;html=1;align=left;fontSize=14;" vertex="1" parent="1">
          <mxGeometry x="40" y="2000" width="1290" height="730" as="geometry" />
        </mxCell>
        <mxCell id="tHV4ukD74e7GTwq4VUuc-3" value="&lt;div style=&quot;&quot;&gt;&lt;div style=&quot;&quot;&gt;&lt;div style=&quot;&quot;&gt;&lt;div style=&quot;&quot;&gt;&lt;div&gt;&amp;nbsp; &amp;nbsp; public class CustomerInactiveDTO&lt;/div&gt;&lt;div&gt;&amp;nbsp; &amp;nbsp; {&lt;/div&gt;&lt;div&gt;&amp;nbsp; &amp;nbsp; &amp;nbsp; &amp;nbsp; /// &amp;lt;summary&amp;gt;&lt;/div&gt;&lt;div&gt;&amp;nbsp; &amp;nbsp; &amp;nbsp; &amp;nbsp; /// 고객 식별자&lt;/div&gt;&lt;div&gt;&amp;nbsp; &amp;nbsp; &amp;nbsp; &amp;nbsp; /// &amp;lt;/summary&amp;gt;&lt;/div&gt;&lt;div&gt;&amp;nbsp; &amp;nbsp; &amp;nbsp; &amp;nbsp; [Required]&lt;/div&gt;&lt;div&gt;&amp;nbsp; &amp;nbsp; &amp;nbsp; &amp;nbsp; public string Id { get; set; }&lt;/div&gt;&lt;div&gt;&lt;br&gt;&lt;/div&gt;&lt;div&gt;&amp;nbsp; &amp;nbsp; &amp;nbsp; &amp;nbsp; /// &amp;lt;summary&amp;gt;&lt;/div&gt;&lt;div&gt;&amp;nbsp; &amp;nbsp; &amp;nbsp; &amp;nbsp; /// 폐업 여부&lt;/div&gt;&lt;div&gt;&amp;nbsp; &amp;nbsp; &amp;nbsp; &amp;nbsp; /// &amp;lt;/summary&amp;gt;&lt;/div&gt;&lt;div&gt;&amp;nbsp; &amp;nbsp; &amp;nbsp; &amp;nbsp; [Required]&lt;/div&gt;&lt;div&gt;&amp;nbsp; &amp;nbsp; &amp;nbsp; &amp;nbsp; public bool IsTermination { get; set; }&lt;/div&gt;&lt;div&gt;&lt;br&gt;&lt;/div&gt;&lt;div&gt;&amp;nbsp; &amp;nbsp; }&lt;/div&gt;&lt;/div&gt;&lt;/div&gt;&lt;/div&gt;&lt;/div&gt;" style="rounded=0;whiteSpace=wrap;html=1;align=left;fontSize=14;" vertex="1" parent="1">
          <mxGeometry x="40" y="2980" width="1290" height="300" as="geometry" />
        </mxCell>
      </root>
    </mxGraphModel>
  </diagram>
</mxfile>
